<svg t="1735531886068" class="icon" viewBox="0 0 1024 1024" version="1.1" xmlns="http://www.w3.org/2000/svg"
  p-id="12620" width="200" height="200">
  <path
    d="M939.732 39.596a44.24 44.24 0 0 1 45.156 45.156c-2.468 79.596-22.396 252.848-138.632 415.66-88.06 123.348-348.352 283.636-398.208 313.68a12.416 12.416 0 0 1-15.144-1.884c-34.22-34.208-186.42-186.408-220.636-220.624a12.424 12.424 0 0 1-1.884-15.152c30.052-49.852 190.34-310.144 313.688-398.204 162.812-116.236 336.064-136.164 415.66-138.632z"
    fill="#009AFF" p-id="12621"></path>
  <path
    d="M545.348 163.612c151.556-100.108 308.196-120.436 387.04-123.748-12.636 96.592-49.316 292.184-146.724 401.04l-240.316-277.292z"
    fill="#00B9FF" p-id="12622"></path>
  <path
    d="M395.34 384.336L273.44 338.62a24.22 24.22 0 0 0-24.856 4.804c-34.792 32-143.988 134.388-206.004 215.604a19.108 19.108 0 0 0 14.996 30.084c70.636 2.372 221.8 7.356 221.8 7.356l115.964-212.132z"
    fill="#00CAFF" p-id="12623"></path>
  <path
    d="M639.18 628.172l45.712 121.904a24.224 24.224 0 0 1-4.8 24.856c-32 34.792-134.388 143.984-215.608 206a19.104 19.104 0 0 1-30.084-14.996c-2.368-70.632-7.352-221.8-7.352-221.8l212.132-115.964z"
    fill="#01AAFE" p-id="12624"></path>
  <path
    d="M369.936 430.812l-90.56 165.656s-136.184-4.492-210.432-6.972c63.132-75.5 153.168-159.864 184.16-188.372a24.228 24.228 0 0 1 24.86-4.8l91.972 34.488z"
    fill="#0095FD" fill-opacity=".5" p-id="12625"></path>
  <path
    d="M592.704 653.58l-165.656 90.556s4.488 136.188 6.972 210.436c75.496-63.132 159.86-153.168 188.368-184.164a24.224 24.224 0 0 0 4.804-24.856l-34.488-91.972z"
    fill="#008BE7" fill-opacity=".5" p-id="12626"></path>
  <path
    d="M881.444 446.06a713.168 713.168 0 0 1-35.188 54.352c-88.06 123.348-348.352 283.636-398.208 313.68a12.416 12.416 0 0 1-15.144-1.884c-34.22-34.208-186.42-186.408-220.636-220.624a12.424 12.424 0 0 1-1.884-15.152c30.052-49.852 190.34-310.144 313.688-398.204a714.46 714.46 0 0 1 54.352-35.192c54.52 43.468 108.084 91.232 159.94 143.084 51.852 51.852 99.616 105.42 143.08 159.94z"
    fill="#AAC4F3" p-id="12627"></path>
  <path
    d="M240.156 528.348c59.416-93.808 183.828-278.668 283.916-350.12a714.46 714.46 0 0 1 54.352-35.192 1908.688 1908.688 0 0 1 146.104 129.384l-25.764 53.3s-73.136 23.716-33.94 203.644c19.852 91.128-250.992 172.66-296.676 126.972l-127.992-127.988z"
    fill="#C0D7FA" p-id="12628"></path>
  <path
    d="M808.5 97.712a5.72 5.72 0 0 0-4.972-10.032c-51.74 13.192-166.416 45.784-156.456 73.208 11.9 32.768 78.532 2.844 161.428-63.176z"
    fill="#FFFFFF" fill-opacity=".3" p-id="12629"></path>
  <path
    d="M783.616 240.864c46.832 46.832 46.832 122.876 0 169.708-46.828 46.832-122.872 46.832-169.704 0-46.832-46.832-46.832-122.876 0-169.708 46.832-46.828 122.876-46.828 169.704 0z"
    fill="#395896" p-id="12630"></path>
  <path
    d="M758.752 265.732c33.108 33.108 33.108 86.868 0 119.976-33.108 33.108-86.868 33.108-119.976 0-33.108-33.108-33.108-86.868 0-119.976 33.108-33.108 86.868-33.108 119.976 0z"
    fill="#60F4FF" p-id="12631"></path>
  <path
    d="M413.096 792.404l-181.02-181.016-13.056 55.472a32.128 32.128 0 0 0 4.204 24.66l30.888 48.328a100.452 100.452 0 0 0 30.524 30.524l48.328 30.888a32.128 32.128 0 0 0 24.66 4.204l55.472-13.06z"
    fill="#3A407D" p-id="12632"></path>
  <path
    d="M649.944 256.324c33.096-23.332 79.208-20.196 108.808 9.408l-119.976 119.976c-29.6-29.604-32.736-75.712-9.404-108.812l20.572-20.572z"
    fill="#D0FAFF" p-id="12633"></path>
  <path
    d="M473.904 590.176a14.008 14.008 0 0 0 0-19.8l-19.8-19.796a14 14 0 0 0-19.796 0l-200.82 200.816a14.008 14.008 0 0 0 0 19.8l19.8 19.8a14.008 14.008 0 0 0 19.8 0l200.816-200.82z"
    fill="#00A4F6" p-id="12634"></path>
</svg>
