<svg height="1200" node-id="1" sillyvg="true" template-height="1200" template-width="1200" version="1.1"
  viewBox="0 0 1200 1200" width="1200" xmlns="http://www.w3.org/2000/svg" xmlns:xlink="http://www.w3.org/1999/xlink">
  <defs node-id="96">
    <linearGradient gradientUnits="objectBoundingBox" id="linear-gradient" node-id="3" spreadMethod="pad" x1="0.5"
      x2="0.245" y1="0" y2="1">
      <stop offset="0" stop-color="#2968ff" />
      <stop offset="1" stop-color="#2938d9" />
    </linearGradient>
    <filter filterUnits="objectBoundingBox" height="410.754" id="路径_1979" node-id="6" width="410.754" x="404.256"
      y="395.908">
      <feOffset color-interpolation-filters="linearRGB" dx="0" dy="0" in="SourceGraphic" result="result1"></feOffset>
      <feGaussianBlur color-interpolation-filters="linearRGB" in="result1" result="blur" stdDeviation="18 18">
      </feGaussianBlur>
      <feFlood color-interpolation-filters="linearRGB" flood-color="#2968ff" flood-opacity="0.2" result="result3">
      </feFlood>
      <feComposite color-interpolation-filters="linearRGB" in="result3" in2="blur" operator="in" result="result4">
      </feComposite>
      <feComposite color-interpolation-filters="linearRGB" in="SourceGraphic" in2="result4" operator="over"
        result="result5"></feComposite>
    </filter>
  </defs>
  <g node-id="123">
    <path d="M 0.00 0.00 L 1200.00 0.00 L 1200.00 1200.00 L 0.00 1200.00 Z" fill="#ffffff" fill-rule="nonzero"
      group-id="1" node-id="119" stroke="none" target-height="1200" target-width="1200" target-x="0" target-y="0" />
    <path d="M 0.50 0.50 L 1199.50 0.50 L 1199.50 1199.50 L 0.50 1199.50 Z" fill="none" group-id="1" node-id="121"
      stroke="#707070" stroke-linecap="butt" stroke-width="1" target-height="1199" target-width="1199" target-x="0.5"
      target-y="0.5" />
  </g>
  <g node-id="124">
    <path
      d="M 110.10 387.20 L 1107.00 387.20 L 1112.80 388.00 L 1117.90 390.10 L 1121.00 392.30 L 1123.50 394.90 L 1125.70 397.90 L 1127.90 403.00 L 1128.60 408.80 L 1128.60 1038.10 L 1128.40 1041.10 L 1126.90 1046.50 L 1125.70 1049.00 L 1123.50 1052.10 L 1121.00 1054.60 L 1117.90 1056.80 L 1115.40 1058.00 L 1110.00 1059.50 L 1107.00 1059.70 L 110.10 1059.70 L 104.50 1059.00 L 99.30 1056.90 L 97.00 1055.30 L 94.80 1053.40 L 91.40 1048.90 L 89.20 1043.70 L 88.50 1038.10 L 88.50 408.80 L 88.70 405.80 L 90.20 400.40 L 91.40 397.90 L 93.60 394.90 L 96.10 392.30 L 99.20 390.10 L 101.70 388.90 L 107.10 387.40 L 110.10 387.20 Z"
      fill="none" group-id="2" id="line" node-id="16" stroke="#2968ff" stroke-dasharray="5 5" stroke-linecap="butt"
      stroke-width="1" target-height="672.49994" target-width="1040.1" target-x="88.5" target-y="387.2" />
  </g>
  <g node-id="125">
    <g node-id="143">
      <path
        d="M 183.60 203.40 L 1048.60 203.40 L 1053.10 203.60 L 1057.40 204.30 L 1061.50 205.30 L 1065.50 206.80 L 1069.30 208.60 L 1072.80 210.80 L 1076.10 213.20 L 1082.00 219.10 L 1084.50 222.40 L 1088.50 229.80 L 1089.90 233.70 L 1091.00 237.90 L 1091.60 242.10 L 1091.90 246.60 L 1091.90 830.50 L 1091.60 835.00 L 1091.00 839.30 L 1089.90 843.40 L 1088.50 847.30 L 1086.60 851.20 L 1082.00 858.00 L 1076.10 863.90 L 1069.30 868.50 L 1065.50 870.40 L 1061.50 871.80 L 1057.40 872.90 L 1053.10 873.50 L 1048.60 873.80 L 183.60 873.80 L 179.10 873.50 L 174.80 872.90 L 170.70 871.80 L 166.80 870.40 L 163.00 868.50 L 156.10 863.90 L 150.20 858.00 L 147.80 854.70 L 143.80 847.30 L 142.30 843.40 L 141.30 839.30 L 140.60 835.00 L 140.40 830.50 L 140.40 246.60 L 140.60 242.10 L 141.30 237.90 L 142.30 233.70 L 143.80 229.80 L 147.80 222.40 L 153.00 216.00 L 159.40 210.80 L 166.80 206.80 L 170.70 205.30 L 174.80 204.30 L 179.10 203.60 L 183.60 203.40 Z"
        fill="#ffffff" fill-rule="evenodd" group-id="3,21" id="bg" node-id="18" stroke="#eeeeee" stroke-linecap="butt"
        stroke-width="1" target-height="670.4" target-width="951.5" target-x="140.4" target-y="203.4" />
    </g>
    <g node-id="144">
      <path
        d="M 181.50 203.40 L 1048.60 203.40 L 1053.10 203.60 L 1057.40 204.30 L 1061.50 205.30 L 1065.50 206.80 L 1072.80 210.80 L 1076.10 213.20 L 1082.00 219.10 L 1084.50 222.40 L 1086.60 226.00 L 1088.50 229.80 L 1089.90 233.70 L 1091.00 237.90 L 1091.60 242.10 L 1091.90 246.60 L 1091.90 289.00 L 138.20 289.00 L 138.20 246.60 L 138.40 242.10 L 139.10 237.90 L 140.10 233.70 L 141.60 229.80 L 143.40 226.00 L 148.10 219.10 L 150.90 216.00 L 154.00 213.20 L 160.80 208.60 L 164.60 206.80 L 168.60 205.30 L 172.70 204.30 L 177.00 203.60 L 181.50 203.40 Z"
        fill="#efefef" fill-rule="evenodd" group-id="3,22" id="bg_title" node-id="19" stroke="none"
        target-height="85.600006" target-width="953.7" target-x="138.2" target-y="203.4" />
    </g>
    <g node-id="145">
      <g node-id="192">
        <path
          d="M 971.60 235.80 L 975.70 236.50 L 979.20 238.60 L 981.70 241.60 L 982.60 243.40 L 983.30 247.50 L 982.60 251.60 L 980.60 255.00 L 977.50 257.60 L 973.80 259.00 L 969.50 259.00 L 967.60 258.40 L 964.10 256.40 L 961.60 253.40 L 960.70 251.60 L 960.00 247.50 L 960.70 243.40 L 962.70 240.00 L 965.70 237.40 L 967.60 236.50 L 971.60 235.80 Z M 1008.60 235.80 L 1012.70 236.50 L 1016.20 238.60 L 1018.70 241.60 L 1019.60 243.40 L 1020.30 247.50 L 1019.60 251.60 L 1017.50 255.00 L 1014.50 257.60 L 1010.80 259.00 L 1006.50 259.00 L 1004.50 258.40 L 1001.10 256.40 L 998.50 253.40 L 997.70 251.60 L 996.90 247.50 L 997.70 243.40 L 999.70 240.00 L 1002.70 237.40 L 1004.50 236.50 L 1008.60 235.80 Z"
          fill="#2968ff" fill-opacity="0.3" fill-rule="evenodd" group-id="3,23,70" id="路径_1292" node-id="21"
          stroke="none" target-height="23.199997" target-width="60.299988" target-x="960" target-y="235.8" />
      </g>
      <path
        d="M 1043.70 235.80 L 1047.70 236.50 L 1049.50 237.40 L 1052.60 240.00 L 1054.60 243.40 L 1055.30 247.50 L 1054.60 251.60 L 1052.60 255.00 L 1049.50 257.60 L 1045.80 259.00 L 1041.50 259.00 L 1039.60 258.40 L 1036.10 256.40 L 1033.60 253.40 L 1032.70 251.60 L 1032.00 247.50 L 1032.70 243.40 L 1034.70 240.00 L 1037.80 237.40 L 1039.60 236.50 L 1043.70 235.80 Z"
        fill="#2968ff" fill-rule="evenodd" group-id="3,23,71" id="路径_1295" node-id="22" stroke="none"
        target-height="23.199997" target-width="23.300049" target-x="1032" target-y="235.8" />
    </g>
    <g node-id="146">
      <g node-id="194">
        <path
          d="M 196.60 551.50 L 603.10 551.50 L 605.50 551.90 L 607.50 552.70 L 609.30 554.10 L 610.60 555.80 L 611.50 557.90 L 611.80 560.20 L 611.80 802.40 L 611.50 804.70 L 610.60 806.80 L 609.30 808.50 L 607.50 809.90 L 605.50 810.70 L 603.10 811.00 L 196.60 811.00 L 194.30 810.70 L 192.20 809.90 L 190.50 808.50 L 189.10 806.80 L 188.30 804.70 L 187.90 802.40 L 187.90 560.20 L 188.60 556.90 L 190.50 554.10 L 193.30 552.20 L 196.60 551.50 Z"
          fill="#8b93a0" fill-opacity="0.049" fill-rule="nonzero" group-id="3,24,72" id="路径_1491" node-id="24"
          stroke="none" target-height="259.5" target-width="423.9" target-x="187.9" target-y="551.5" />
      </g>
      <g node-id="195">
        <path
          d="M 650.70 551.50 L 1057.30 551.50 L 1059.60 551.90 L 1061.60 552.70 L 1063.40 554.10 L 1064.70 555.80 L 1065.60 557.90 L 1065.90 560.20 L 1065.90 802.40 L 1065.60 804.70 L 1064.70 806.80 L 1063.40 808.50 L 1061.60 809.90 L 1059.60 810.70 L 1057.30 811.00 L 650.70 811.00 L 648.40 810.70 L 646.40 809.90 L 644.60 808.50 L 643.30 806.80 L 642.40 804.70 L 642.10 802.40 L 642.10 560.20 L 642.40 557.90 L 643.30 555.80 L 644.60 554.10 L 646.40 552.70 L 648.40 551.90 L 650.70 551.50 Z"
          fill="#8b93a0" fill-opacity="0.049" fill-rule="nonzero" group-id="3,24,73" id="路径_1494" node-id="25"
          stroke="none" target-height="259.5" target-width="423.80005" target-x="642.1" target-y="551.5" />
      </g>
      <g node-id="196">
        <path
          d="M 264.70 664.00 L 269.50 663.70 L 274.10 663.00 L 278.60 661.90 L 282.80 660.30 L 286.90 658.40 L 290.70 656.00 L 294.30 653.40 L 297.60 650.40 L 300.60 647.10 L 303.30 643.50 L 305.60 639.70 L 307.50 635.60 L 309.10 631.40 L 310.20 626.90 L 310.90 622.30 L 311.20 617.50 L 311.00 612.90 L 310.30 608.40 L 309.20 604.00 L 307.70 599.70 L 305.70 595.60 L 303.40 591.70 L 300.70 588.10 L 297.60 584.60 L 294.10 581.50 L 290.50 578.80 L 286.60 576.50 L 282.50 574.50 L 278.20 573.00 L 273.80 571.90 L 269.30 571.20 L 264.70 571.00 L 259.90 571.30 L 255.30 572.00 L 250.90 573.10 L 246.60 574.70 L 242.50 576.60 L 238.70 579.00 L 235.10 581.60 L 231.80 584.60 L 228.80 587.90 L 226.20 591.50 L 223.80 595.30 L 221.90 599.40 L 220.30 603.70 L 219.20 608.10 L 218.50 612.70 L 218.20 617.50 L 218.50 622.10 L 219.10 626.60 L 220.20 631.00 L 221.80 635.30 L 223.70 639.40 L 226.00 643.30 L 228.70 646.90 L 231.80 650.40 L 235.30 653.50 L 238.90 656.20 L 242.80 658.50 L 246.90 660.50 L 251.20 662.00 L 255.60 663.10 L 260.10 663.80 L 264.70 664.00 Z"
          fill="#8b93a0" fill-opacity="0.09" fill-rule="nonzero" group-id="3,24,74" id="路径_1497" node-id="26"
          stroke="none" target-height="93" target-width="93.000015" target-x="218.2" target-y="571" />
      </g>
      <g node-id="197">
        <path
          d="M 335.30 581.80 L 558.40 581.80 L 560.20 582.10 L 561.80 582.70 L 563.30 583.80 L 564.30 585.20 L 565.00 586.80 L 565.30 588.60 L 565.00 590.40 L 564.30 592.00 L 563.30 593.40 L 561.80 594.50 L 560.20 595.20 L 558.40 595.40 L 335.30 595.40 L 333.50 595.20 L 331.90 594.50 L 330.50 593.40 L 329.40 592.00 L 328.70 590.40 L 328.50 588.60 L 328.70 586.80 L 329.40 585.20 L 330.50 583.80 L 331.90 582.70 L 333.50 582.10 L 335.30 581.80 Z M 335.30 612.40 L 558.40 612.40 L 560.20 612.60 L 561.80 613.30 L 563.30 614.40 L 564.30 615.80 L 565.00 617.40 L 565.30 619.20 L 565.00 620.90 L 564.30 622.50 L 563.30 624.00 L 561.80 625.10 L 560.20 625.70 L 558.40 626.00 L 335.30 626.00 L 333.50 625.70 L 331.90 625.10 L 330.50 624.00 L 329.40 622.50 L 328.70 620.90 L 328.50 619.20 L 328.70 617.40 L 329.40 615.80 L 330.50 614.40 L 331.90 613.30 L 333.50 612.60 L 335.30 612.40 Z M 335.30 642.90 L 558.40 642.90 L 560.20 643.20 L 561.80 643.80 L 563.30 644.90 L 564.30 646.30 L 565.00 647.90 L 565.30 649.70 L 565.00 651.50 L 564.30 653.10 L 563.30 654.50 L 561.80 655.60 L 560.20 656.30 L 558.40 656.50 L 335.30 656.50 L 333.50 656.30 L 331.90 655.60 L 330.50 654.50 L 329.40 653.10 L 328.70 651.50 L 328.50 649.70 L 328.70 647.90 L 329.40 646.30 L 330.50 644.90 L 331.90 643.80 L 333.50 643.20 L 335.30 642.90 Z M 335.30 671.80 L 558.40 671.80 L 560.20 672.00 L 561.80 672.70 L 563.30 673.80 L 564.30 675.20 L 565.00 676.80 L 565.30 678.60 L 565.00 680.30 L 564.30 681.90 L 563.30 683.40 L 561.80 684.50 L 560.20 685.10 L 558.40 685.40 L 335.30 685.40 L 333.50 685.10 L 331.90 684.50 L 330.50 683.40 L 329.40 681.90 L 328.70 680.40 L 328.50 678.60 L 328.70 676.80 L 329.40 675.20 L 330.50 673.80 L 331.90 672.70 L 333.50 672.00 L 335.30 671.80 Z M 335.30 702.30 L 558.40 702.30 L 560.20 702.60 L 561.80 703.20 L 563.30 704.30 L 564.30 705.70 L 565.00 707.30 L 565.30 709.10 L 565.00 710.90 L 564.30 712.50 L 563.30 713.90 L 561.80 715.00 L 560.20 715.70 L 558.40 715.90 L 335.30 715.90 L 333.50 715.70 L 331.90 715.00 L 330.50 713.90 L 329.40 712.50 L 328.70 710.90 L 328.50 709.10 L 328.70 707.30 L 329.40 705.70 L 330.50 704.30 L 331.90 703.20 L 333.50 702.60 L 335.30 702.30 Z M 676.00 581.80 L 899.10 581.80 L 900.90 582.10 L 902.50 582.70 L 903.90 583.80 L 905.00 585.20 L 905.70 586.80 L 905.90 588.60 L 905.70 590.40 L 905.00 592.00 L 903.90 593.40 L 902.50 594.50 L 900.90 595.20 L 899.10 595.40 L 676.00 595.40 L 674.20 595.20 L 672.60 594.50 L 671.20 593.40 L 670.10 592.00 L 669.40 590.40 L 669.20 588.60 L 669.40 586.80 L 670.10 585.20 L 671.20 583.80 L 672.60 582.70 L 674.20 582.10 L 676.00 581.80 Z M 676.00 612.40 L 899.10 612.40 L 900.90 612.60 L 902.50 613.30 L 903.90 614.40 L 905.00 615.80 L 905.70 617.40 L 905.90 619.20 L 905.70 620.90 L 905.00 622.50 L 903.90 624.00 L 902.50 625.10 L 900.90 625.70 L 899.10 626.00 L 676.00 626.00 L 674.20 625.70 L 672.60 625.10 L 671.20 624.00 L 670.10 622.50 L 669.40 620.90 L 669.20 619.20 L 669.40 617.40 L 670.10 615.80 L 671.20 614.40 L 672.60 613.30 L 674.20 612.60 L 676.00 612.40 Z"
          fill="#8b93a0" fill-opacity="0.09" fill-rule="evenodd" group-id="3,24,75" id="路径_1500" node-id="27"
          stroke="none" target-height="134.10004" target-width="577.4" target-x="328.5" target-y="581.8" />
      </g>
      <g node-id="198">
        <path
          d="M 249.20 328.80 L 327.60 328.80 L 330.30 329.10 L 332.80 329.90 L 335.20 331.10 L 337.20 332.80 L 338.90 334.90 L 340.20 337.30 L 341.00 339.80 L 341.20 342.50 L 341.20 423.20 L 341.00 425.70 L 340.40 428.00 L 339.40 430.10 L 338.00 432.00 L 334.50 435.00 L 332.40 436.10 L 330.10 436.70 L 327.60 436.90 L 249.20 436.90 L 246.70 436.70 L 244.40 436.10 L 242.30 435.00 L 238.70 432.00 L 237.40 430.10 L 236.40 428.00 L 235.70 425.70 L 235.50 423.20 L 235.50 342.50 L 235.70 340.00 L 236.40 337.70 L 237.40 335.60 L 240.30 332.10 L 242.30 330.70 L 244.40 329.70 L 246.70 329.00 L 249.20 328.80 Z M 477.60 328.80 L 556.00 328.80 L 558.50 329.00 L 560.80 329.70 L 562.90 330.70 L 566.50 333.70 L 567.80 335.60 L 568.80 337.70 L 569.40 340.00 L 569.70 342.50 L 569.70 423.20 L 569.40 425.70 L 568.80 428.00 L 567.80 430.10 L 564.80 433.70 L 562.90 435.00 L 560.80 436.10 L 558.50 436.70 L 556.00 436.90 L 477.60 436.90 L 475.10 436.70 L 472.80 436.10 L 470.70 435.00 L 467.20 432.00 L 465.80 430.10 L 464.80 428.00 L 464.20 425.70 L 464.00 423.20 L 464.00 342.50 L 464.20 340.00 L 464.80 337.70 L 465.80 335.60 L 468.80 332.10 L 472.80 329.70 L 475.10 329.00 L 477.60 328.80 Z M 704.30 328.80 L 782.80 328.80 L 785.30 329.00 L 787.50 329.70 L 789.70 330.70 L 793.20 333.70 L 794.50 335.60 L 795.60 337.70 L 796.20 340.00 L 796.40 342.50 L 796.40 423.20 L 796.20 425.70 L 795.60 428.00 L 793.20 432.00 L 791.60 433.70 L 789.70 435.00 L 787.50 436.10 L 785.30 436.70 L 782.80 436.90 L 704.30 436.90 L 701.80 436.70 L 699.60 436.10 L 697.40 435.00 L 693.90 432.00 L 692.50 430.10 L 691.50 428.00 L 690.90 425.70 L 690.70 423.20 L 690.70 342.50 L 690.90 340.00 L 691.50 337.70 L 692.50 335.60 L 695.50 332.10 L 697.40 330.70 L 699.60 329.70 L 701.80 329.00 L 704.30 328.80 Z M 932.80 328.80 L 1011.20 328.80 L 1013.70 329.00 L 1016.00 329.70 L 1018.10 330.70 L 1021.60 333.70 L 1024.00 337.70 L 1024.60 340.00 L 1024.80 342.50 L 1024.80 423.20 L 1024.60 425.70 L 1024.00 428.00 L 1021.60 432.00 L 1018.10 435.00 L 1016.00 436.10 L 1013.70 436.70 L 1011.20 436.90 L 932.80 436.90 L 930.30 436.70 L 928.00 436.10 L 925.90 435.00 L 922.30 432.00 L 920.00 428.00 L 919.40 425.70 L 919.10 423.20 L 919.10 342.50 L 919.40 340.00 L 920.00 337.70 L 921.00 335.60 L 924.00 332.10 L 928.00 329.70 L 930.30 329.00 L 932.80 328.80 Z"
          fill="#f8f8f8" fill-rule="evenodd" group-id="3,24,76" id="路径_2348" node-id="28" stroke="none"
          target-height="108.100006" target-width="789.30005" target-x="235.5" target-y="328.8" />
      </g>
      <g node-id="199">
        <path
          d="M 227.20 462.90 L 349.70 462.90 L 351.50 463.20 L 353.20 464.10 L 354.50 465.40 L 355.60 467.20 L 356.30 469.20 L 356.50 471.50 L 356.30 473.90 L 355.60 475.90 L 354.50 477.70 L 353.20 479.00 L 351.50 479.90 L 349.70 480.20 L 227.20 480.20 L 225.40 479.90 L 223.70 479.00 L 222.40 477.70 L 221.30 475.90 L 220.60 473.90 L 220.40 471.50 L 220.60 469.20 L 221.30 467.20 L 222.40 465.40 L 223.70 464.10 L 225.40 463.20 L 227.20 462.90 Z M 453.60 462.90 L 576.10 462.90 L 577.90 463.20 L 579.50 464.10 L 580.90 465.40 L 582.00 467.20 L 582.70 469.20 L 582.90 471.50 L 582.70 473.90 L 582.00 475.90 L 580.90 477.70 L 579.50 479.00 L 577.90 479.90 L 576.10 480.20 L 453.60 480.20 L 451.70 479.90 L 450.10 479.00 L 448.80 477.70 L 447.70 475.90 L 447.00 473.90 L 446.70 471.50 L 447.00 469.20 L 447.70 467.20 L 448.80 465.40 L 450.10 464.10 L 451.70 463.20 L 453.60 462.90 Z M 679.90 462.90 L 802.50 462.90 L 804.30 463.20 L 805.90 464.10 L 807.30 465.40 L 808.40 467.20 L 809.00 469.20 L 809.30 471.50 L 809.00 473.90 L 808.40 475.90 L 807.30 477.70 L 805.90 479.00 L 804.30 479.90 L 802.50 480.20 L 679.90 480.20 L 678.10 479.90 L 676.50 479.00 L 675.10 477.70 L 674.00 475.90 L 673.40 473.90 L 673.10 471.50 L 673.40 469.20 L 674.00 467.20 L 675.10 465.40 L 676.50 464.10 L 678.10 463.20 L 679.90 462.90 Z M 906.30 462.90 L 1028.80 462.90 L 1030.70 463.20 L 1032.30 464.10 L 1033.60 465.40 L 1034.70 467.20 L 1035.40 469.20 L 1035.70 471.50 L 1035.40 473.90 L 1034.70 475.90 L 1033.60 477.70 L 1032.30 479.00 L 1030.70 479.90 L 1028.80 480.20 L 906.30 480.20 L 904.50 479.90 L 902.90 479.00 L 901.50 477.70 L 900.40 475.90 L 899.70 473.90 L 899.50 471.50 L 899.70 469.20 L 900.40 467.20 L 901.50 465.40 L 902.90 464.10 L 904.50 463.20 L 906.30 462.90 Z"
          fill="#f8f8f8" fill-rule="evenodd" group-id="3,24,77" id="路径_2347" node-id="29" stroke="none"
          target-height="17.300018" target-width="815.2999" target-x="220.4" target-y="462.9" />
      </g>
      <path
        d="M 650.70 787.30 L 652.80 779.90 L 657.20 768.40 L 662.90 756.80 L 669.10 747.00 L 672.60 742.30 L 676.60 737.70 L 681.10 733.20 L 685.80 729.20 L 691.10 725.50 L 696.80 722.20 L 701.30 720.20 L 706.10 718.50 L 711.20 717.10 L 716.70 716.10 L 722.20 715.60 L 728.00 715.60 L 734.40 716.00 L 772.30 722.40 L 781.20 723.60 L 795.40 724.60 L 801.90 724.50 L 807.70 724.10 L 812.70 723.30 L 817.60 722.00 L 822.20 720.20 L 826.40 718.10 L 830.50 715.50 L 834.60 712.40 L 838.80 708.70 L 845.00 702.50 L 852.20 694.80 L 859.10 686.60 L 878.70 661.50 L 885.40 654.50 L 889.10 651.60 L 893.00 649.10 L 897.30 647.00 L 901.80 645.40 L 906.90 644.20 L 912.90 643.60 L 918.80 643.50 L 925.80 644.00 L 941.20 646.10 L 947.20 646.60 L 952.30 646.50 L 957.40 646.10 L 961.70 645.30 L 965.30 644.10 L 968.80 642.60 L 971.90 640.80 L 974.50 638.90 L 978.10 635.50 L 981.10 631.80 L 992.10 615.90 L 996.40 611.20 L 1004.40 604.90 L 1020.60 590.50 L 1023.90 588.20 L 1026.20 587.10 L 1028.50 586.40 L 1030.70 586.10 L 1033.00 586.40 L 1035.40 587.20 L 1038.20 588.60 L 1039.90 590.70 L 1040.70 592.90 L 1041.60 596.30 L 1042.60 603.00 L 1043.50 612.60 L 1044.00 622.90 L 1044.30 648.20 L 1043.40 691.10 L 1040.80 746.00 L 1038.20 787.30 Z"
        fill="#f1f1f3" fill-rule="evenodd" group-id="3,24,78" id="路径_2349" node-id="30" stroke="none"
        target-height="201.20001" target-width="393.60004" target-x="650.7" target-y="586.1" />
    </g>
  </g>
  <g node-id="126">
    <path
      d="M 1008.00 597.00 L 1007.70 612.80 L 1006.70 628.60 L 1005.20 644.20 L 1003.00 659.60 L 1000.30 675.00 L 996.90 690.20 L 993.00 705.30 L 988.50 720.10 L 983.40 734.80 L 977.70 749.30 L 971.50 763.50 L 964.70 777.50 L 957.40 791.20 L 949.50 804.60 L 941.10 817.80 L 932.20 830.60 L 922.80 843.00 L 912.90 855.20 L 902.40 866.90 L 891.40 878.40 L 880.00 889.40 L 868.20 899.80 L 856.10 909.80 L 843.60 919.20 L 830.80 928.10 L 817.60 936.50 L 804.20 944.40 L 790.50 951.70 L 776.60 958.40 L 762.30 964.70 L 747.80 970.30 L 733.20 975.40 L 718.30 979.90 L 703.30 983.90 L 688.00 987.20 L 672.70 990.00 L 657.20 992.20 L 641.60 993.70 L 625.90 994.60 L 610.00 995.00 L 594.10 994.60 L 578.40 993.70 L 562.80 992.20 L 547.30 990.00 L 532.00 987.20 L 516.70 983.90 L 501.70 979.90 L 486.80 975.40 L 472.20 970.30 L 457.70 964.70 L 443.40 958.40 L 429.50 951.70 L 415.80 944.40 L 402.40 936.50 L 389.20 928.10 L 376.40 919.20 L 363.90 909.80 L 351.80 899.80 L 340.00 889.40 L 328.60 878.40 L 317.60 866.90 L 307.10 855.20 L 297.20 843.00 L 287.80 830.60 L 278.90 817.80 L 270.50 804.60 L 262.60 791.20 L 255.30 777.50 L 248.50 763.50 L 242.30 749.30 L 236.60 734.80 L 231.50 720.10 L 227.00 705.30 L 223.10 690.20 L 219.70 675.00 L 217.00 659.60 L 214.80 644.20 L 213.30 628.60 L 212.30 612.80 L 212.00 597.00 L 212.30 581.10 L 213.30 565.40 L 214.80 549.80 L 217.00 534.30 L 219.70 519.00 L 223.10 503.70 L 227.00 488.60 L 231.50 473.80 L 236.60 459.10 L 242.30 444.70 L 248.50 430.40 L 255.30 416.50 L 262.60 402.80 L 270.50 389.30 L 278.90 376.20 L 287.80 363.30 L 297.20 350.90 L 307.10 338.80 L 317.60 327.00 L 328.60 315.50 L 340.00 304.50 L 351.80 294.10 L 363.90 284.20 L 376.40 274.70 L 389.20 265.80 L 402.40 257.40 L 415.80 249.60 L 429.50 242.30 L 443.40 235.50 L 457.70 229.30 L 472.20 223.60 L 486.80 218.50 L 501.70 214.00 L 516.70 210.10 L 532.00 206.70 L 547.30 203.90 L 562.80 201.80 L 578.40 200.20 L 594.10 199.30 L 610.00 199.00 L 625.90 199.30 L 641.60 200.20 L 657.20 201.80 L 672.70 203.90 L 688.00 206.70 L 703.30 210.10 L 718.30 214.00 L 733.20 218.50 L 747.80 223.60 L 762.30 229.30 L 776.60 235.50 L 790.50 242.30 L 804.20 249.60 L 817.60 257.40 L 830.80 265.80 L 843.60 274.70 L 856.10 284.20 L 868.20 294.10 L 880.00 304.50 L 891.40 315.50 L 902.40 327.00 L 912.90 338.80 L 922.80 350.90 L 932.20 363.30 L 941.10 376.20 L 949.50 389.30 L 957.40 402.80 L 964.70 416.50 L 971.50 430.40 L 977.70 444.70 L 983.40 459.10 L 988.50 473.80 L 993.00 488.60 L 996.90 503.70 L 1000.30 519.00 L 1003.00 534.30 L 1005.20 549.80 L 1006.70 565.40 L 1007.70 581.10 L 1008.00 597.00 Z"
      fill="#2968ff" fill-opacity="0.014" fill-rule="nonzero" group-id="4" id="椭圆_119" node-id="31" stroke="none"
      target-height="796" target-width="796" target-x="212" target-y="199" />
  </g>
  <g node-id="127">
    <path
      d="M 964.00 597.00 L 963.70 611.70 L 962.80 626.30 L 961.40 640.50 L 959.40 654.60 L 956.80 668.50 L 953.70 682.40 L 950.00 695.90 L 945.90 709.30 L 941.30 722.30 L 936.10 735.10 L 930.50 747.80 L 924.40 760.20 L 917.90 772.20 L 910.90 784.00 L 903.50 795.50 L 895.60 806.70 L 887.30 817.50 L 878.70 828.00 L 869.60 838.20 L 860.20 848.00 L 850.40 857.50 L 840.20 866.50 L 829.70 875.20 L 818.90 883.50 L 807.70 891.30 L 796.20 898.80 L 784.50 905.80 L 772.50 912.30 L 760.10 918.40 L 747.50 924.10 L 734.70 929.20 L 721.60 933.80 L 708.30 938.00 L 694.80 941.60 L 680.90 944.80 L 667.10 947.30 L 653.00 949.30 L 638.70 950.80 L 624.20 951.70 L 609.50 952.00 L 594.80 951.70 L 580.30 950.80 L 566.00 949.30 L 551.90 947.30 L 538.10 944.80 L 524.20 941.60 L 510.70 938.00 L 497.40 933.80 L 484.30 929.20 L 471.50 924.10 L 458.90 918.40 L 446.50 912.30 L 434.50 905.80 L 422.80 898.80 L 411.30 891.30 L 400.10 883.50 L 389.30 875.20 L 378.80 866.50 L 368.60 857.50 L 358.80 848.00 L 349.40 838.20 L 340.30 828.00 L 331.70 817.50 L 323.40 806.70 L 315.50 795.50 L 308.10 784.00 L 301.10 772.20 L 294.60 760.20 L 288.50 747.80 L 282.90 735.10 L 277.70 722.30 L 273.10 709.30 L 269.00 695.90 L 265.30 682.40 L 262.20 668.50 L 259.60 654.60 L 257.60 640.50 L 256.20 626.30 L 255.30 611.70 L 255.00 597.00 L 255.30 582.20 L 256.20 567.70 L 257.60 553.40 L 259.60 539.30 L 262.20 525.40 L 265.30 511.60 L 269.00 498.00 L 273.10 484.70 L 277.70 471.60 L 282.90 458.80 L 288.50 446.10 L 294.60 433.80 L 301.10 421.70 L 308.10 410.00 L 315.50 398.50 L 323.40 387.30 L 331.70 376.40 L 340.30 365.90 L 349.40 355.80 L 358.80 345.90 L 368.60 336.50 L 378.80 327.40 L 389.30 318.80 L 400.10 310.50 L 411.30 302.60 L 422.80 295.20 L 434.50 288.20 L 446.50 281.60 L 458.90 275.50 L 471.50 269.90 L 484.30 264.70 L 497.40 260.10 L 510.70 255.90 L 524.20 252.30 L 538.10 249.20 L 551.90 246.60 L 566.00 244.60 L 580.30 243.20 L 594.80 242.30 L 609.50 242.00 L 624.20 242.30 L 638.70 243.20 L 653.00 244.60 L 667.10 246.60 L 680.90 249.20 L 694.80 252.30 L 708.30 255.90 L 721.60 260.10 L 734.70 264.70 L 747.50 269.90 L 760.10 275.50 L 772.50 281.60 L 784.50 288.20 L 796.20 295.20 L 807.70 302.60 L 818.90 310.50 L 829.70 318.80 L 840.20 327.40 L 850.40 336.50 L 860.20 345.90 L 869.60 355.80 L 878.70 365.90 L 887.30 376.40 L 895.60 387.30 L 903.50 398.50 L 910.90 410.00 L 917.90 421.70 L 924.40 433.80 L 930.50 446.10 L 936.10 458.80 L 941.30 471.60 L 945.90 484.70 L 950.00 498.00 L 953.70 511.60 L 956.80 525.40 L 959.40 539.30 L 961.40 553.40 L 962.80 567.70 L 963.70 582.20 L 964.00 597.00 Z"
      fill="#2968ff" fill-opacity="0.02" fill-rule="nonzero" group-id="5" id="椭圆_124" node-id="32" stroke="none"
      target-height="710" target-width="709" target-x="255" target-y="242" />
  </g>
  <g node-id="128">
    <path
      d="M 928.00 597.00 L 927.70 610.20 L 926.90 623.20 L 925.60 636.00 L 923.80 648.60 L 921.50 661.10 L 918.70 673.50 L 915.50 685.60 L 911.80 697.50 L 907.60 709.30 L 903.00 720.70 L 897.90 732.10 L 892.50 743.20 L 886.60 753.90 L 880.40 764.50 L 873.70 774.80 L 866.60 784.80 L 859.20 794.50 L 851.50 803.90 L 843.30 813.00 L 834.90 821.80 L 826.10 830.30 L 817.00 838.40 L 807.50 846.20 L 797.80 853.60 L 787.80 860.70 L 777.50 867.30 L 767.00 873.60 L 756.20 879.40 L 745.10 884.90 L 733.80 890.00 L 722.30 894.60 L 710.60 898.70 L 698.70 902.40 L 686.50 905.70 L 674.10 908.50 L 661.70 910.80 L 649.00 912.60 L 636.20 913.90 L 623.20 914.70 L 610.00 915.00 L 596.80 914.70 L 583.80 913.90 L 571.00 912.60 L 558.30 910.80 L 545.90 908.50 L 533.50 905.70 L 521.30 902.40 L 509.40 898.70 L 497.70 894.60 L 486.20 890.00 L 474.90 884.90 L 463.80 879.40 L 453.00 873.60 L 442.50 867.30 L 432.20 860.70 L 422.20 853.60 L 412.50 846.20 L 403.00 838.40 L 393.90 830.30 L 385.10 821.80 L 376.70 813.00 L 368.50 803.90 L 360.80 794.50 L 353.40 784.80 L 346.30 774.80 L 339.60 764.50 L 333.40 753.90 L 327.50 743.20 L 322.10 732.10 L 317.00 720.70 L 312.40 709.30 L 308.20 697.50 L 304.50 685.60 L 301.30 673.50 L 298.50 661.10 L 296.20 648.60 L 294.40 636.00 L 293.10 623.20 L 292.30 610.20 L 292.00 597.00 L 292.30 583.70 L 293.10 570.70 L 294.40 557.90 L 296.20 545.30 L 298.50 532.90 L 301.30 520.50 L 304.50 508.30 L 308.20 496.40 L 312.40 484.70 L 317.00 473.20 L 322.10 461.80 L 327.50 450.80 L 333.40 440.00 L 339.60 429.50 L 346.30 419.20 L 353.40 409.10 L 360.80 399.40 L 368.50 390.00 L 376.70 380.90 L 385.10 372.10 L 393.90 363.60 L 403.00 355.50 L 412.50 347.80 L 422.20 340.30 L 432.20 333.30 L 442.50 326.60 L 453.00 320.30 L 463.80 314.50 L 474.90 309.00 L 486.20 304.00 L 497.70 299.40 L 509.40 295.20 L 521.30 291.50 L 533.50 288.20 L 545.90 285.40 L 558.30 283.10 L 571.00 281.30 L 583.80 280.00 L 596.80 279.20 L 610.00 279.00 L 623.20 279.20 L 636.20 280.00 L 649.00 281.30 L 661.70 283.10 L 674.10 285.40 L 686.50 288.20 L 698.70 291.50 L 710.60 295.20 L 722.30 299.40 L 733.80 304.00 L 745.10 309.00 L 756.20 314.50 L 767.00 320.30 L 777.50 326.60 L 787.80 333.30 L 797.80 340.30 L 807.50 347.80 L 817.00 355.50 L 826.10 363.60 L 834.90 372.10 L 843.30 380.90 L 851.50 390.00 L 859.20 399.40 L 866.60 409.10 L 873.70 419.20 L 880.40 429.50 L 886.60 440.00 L 892.50 450.80 L 897.90 461.80 L 903.00 473.20 L 907.60 484.70 L 911.80 496.40 L 915.50 508.30 L 918.70 520.50 L 921.50 532.90 L 923.80 545.30 L 925.60 557.90 L 926.90 570.70 L 927.70 583.70 L 928.00 597.00 Z"
      fill="#2968ff" fill-opacity="0.03" fill-rule="nonzero" group-id="6" id="椭圆_123" node-id="33" stroke="none"
      target-height="636" target-width="636" target-x="292" target-y="279" />
  </g>
  <g node-id="129">
    <path
      d="M 891.00 598.00 L 890.70 611.30 L 889.80 624.30 L 888.30 637.20 L 886.20 649.80 L 883.60 662.20 L 880.40 674.50 L 876.70 686.60 L 872.50 698.30 L 867.80 709.80 L 862.50 721.10 L 856.80 732.20 L 850.60 742.90 L 844.00 753.30 L 837.00 763.30 L 829.50 773.10 L 821.60 782.50 L 813.30 791.60 L 804.60 800.20 L 795.60 808.50 L 786.10 816.50 L 776.40 824.00 L 766.30 831.00 L 755.90 837.60 L 745.20 843.80 L 734.10 849.50 L 722.90 854.70 L 711.40 859.40 L 699.60 863.70 L 687.50 867.40 L 675.20 870.60 L 662.80 873.20 L 650.20 875.30 L 637.40 876.70 L 624.30 877.60 L 611.00 878.00 L 597.70 877.60 L 584.60 876.70 L 571.80 875.30 L 559.20 873.20 L 546.80 870.60 L 534.50 867.40 L 522.40 863.70 L 510.60 859.40 L 499.10 854.70 L 487.90 849.50 L 476.80 843.80 L 466.10 837.60 L 455.70 831.00 L 445.60 824.00 L 435.90 816.50 L 426.40 808.50 L 417.40 800.20 L 408.70 791.60 L 400.40 782.50 L 392.50 773.10 L 385.00 763.30 L 378.00 753.30 L 371.40 742.90 L 365.20 732.20 L 359.50 721.10 L 354.20 709.80 L 349.50 698.30 L 345.30 686.60 L 341.60 674.50 L 338.40 662.20 L 335.80 649.80 L 333.70 637.20 L 332.20 624.30 L 331.30 611.30 L 331.00 598.00 L 331.30 584.70 L 332.20 571.60 L 333.70 558.80 L 335.80 546.20 L 338.40 533.80 L 341.60 521.40 L 345.30 509.40 L 349.50 497.60 L 354.20 486.10 L 359.50 474.80 L 365.20 463.80 L 371.40 453.10 L 378.00 442.70 L 385.00 432.60 L 392.50 422.80 L 400.40 413.40 L 408.70 404.40 L 417.40 395.70 L 426.40 387.40 L 435.90 379.50 L 445.60 372.00 L 455.70 364.90 L 466.10 358.30 L 476.80 352.20 L 487.90 346.40 L 499.10 341.20 L 510.60 336.50 L 522.40 332.30 L 534.50 328.60 L 546.80 325.40 L 559.20 322.70 L 571.80 320.70 L 584.60 319.20 L 597.70 318.30 L 611.00 318.00 L 624.30 318.30 L 637.40 319.20 L 650.20 320.70 L 662.80 322.70 L 675.20 325.40 L 687.50 328.60 L 699.60 332.30 L 711.40 336.50 L 722.90 341.20 L 734.10 346.40 L 745.20 352.20 L 755.90 358.30 L 766.30 364.90 L 776.40 372.00 L 786.10 379.50 L 795.60 387.40 L 804.60 395.70 L 813.30 404.40 L 821.60 413.40 L 829.50 422.80 L 837.00 432.60 L 844.00 442.70 L 850.60 453.10 L 856.80 463.80 L 862.50 474.80 L 867.80 486.10 L 872.50 497.60 L 876.70 509.40 L 880.40 521.40 L 883.60 533.80 L 886.20 546.20 L 888.30 558.80 L 889.80 571.60 L 890.70 584.70 L 891.00 598.00 Z"
      fill="#2968ff" fill-opacity="0.04" fill-rule="nonzero" group-id="7" id="椭圆_121" node-id="34" stroke="none"
      target-height="560" target-width="560" target-x="331" target-y="318" />
  </g>
  <g node-id="130">
    <path
      d="M 850.00 598.00 L 849.70 609.30 L 849.00 620.50 L 847.70 631.40 L 845.90 642.20 L 843.70 652.80 L 841.00 663.30 L 837.80 673.60 L 834.30 683.60 L 830.20 693.50 L 825.80 703.10 L 820.90 712.50 L 815.70 721.70 L 810.10 730.50 L 804.10 739.10 L 797.70 747.40 L 791.00 755.50 L 783.90 763.20 L 776.60 770.60 L 768.90 777.70 L 760.90 784.50 L 752.60 790.90 L 744.00 796.90 L 735.20 802.50 L 726.10 807.80 L 716.70 812.70 L 707.10 817.10 L 697.30 821.20 L 687.30 824.80 L 677.10 827.90 L 666.60 830.70 L 656.00 832.90 L 645.30 834.60 L 634.40 835.90 L 623.30 836.70 L 612.00 837.00 L 600.70 836.70 L 589.60 835.90 L 578.70 834.60 L 568.00 832.90 L 557.40 830.70 L 546.90 827.90 L 536.70 824.80 L 526.70 821.20 L 516.90 817.10 L 507.30 812.70 L 497.90 807.80 L 488.80 802.50 L 480.00 796.90 L 471.40 790.90 L 463.10 784.50 L 455.10 777.70 L 447.40 770.60 L 440.10 763.20 L 433.00 755.50 L 426.30 747.40 L 419.90 739.10 L 413.90 730.50 L 408.30 721.70 L 403.10 712.50 L 398.20 703.10 L 393.80 693.50 L 389.70 683.60 L 386.20 673.60 L 383.00 663.30 L 380.30 652.80 L 378.10 642.20 L 376.30 631.40 L 375.00 620.50 L 374.30 609.30 L 374.00 598.00 L 374.30 586.60 L 375.00 575.50 L 376.30 564.50 L 378.10 553.70 L 380.30 543.20 L 383.00 532.60 L 386.20 522.30 L 389.70 512.30 L 393.80 502.50 L 398.20 492.90 L 403.10 483.40 L 408.30 474.30 L 413.90 465.40 L 419.90 456.80 L 426.30 448.50 L 433.00 440.40 L 440.10 432.70 L 447.40 425.30 L 455.10 418.20 L 463.10 411.50 L 471.40 405.10 L 480.00 399.10 L 488.80 393.40 L 497.90 388.20 L 507.30 383.30 L 516.90 378.80 L 526.70 374.80 L 536.70 371.20 L 546.90 368.00 L 557.40 365.30 L 568.00 363.00 L 578.70 361.30 L 589.60 360.00 L 600.70 359.20 L 612.00 359.00 L 623.30 359.20 L 634.40 360.00 L 645.30 361.30 L 656.00 363.00 L 666.60 365.30 L 677.10 368.00 L 687.30 371.20 L 697.30 374.80 L 707.10 378.80 L 716.70 383.30 L 726.10 388.20 L 735.20 393.40 L 744.00 399.10 L 752.60 405.10 L 760.90 411.50 L 768.90 418.20 L 776.60 425.30 L 783.90 432.70 L 791.00 440.40 L 797.70 448.50 L 804.10 456.80 L 810.10 465.40 L 815.70 474.30 L 820.90 483.40 L 825.80 492.90 L 830.20 502.50 L 834.30 512.30 L 837.80 522.30 L 841.00 532.60 L 843.70 543.20 L 845.90 553.70 L 847.70 564.50 L 849.00 575.50 L 849.70 586.60 L 850.00 598.00 Z"
      fill="#2968ff" fill-opacity="0.05" fill-rule="nonzero" group-id="8" id="椭圆_122" node-id="35" stroke="none"
      target-height="478" target-width="476" target-x="374" target-y="359" />
  </g>
  <g node-id="131">
    <path
      d="M 793.00 598.00 L 792.70 608.10 L 791.90 618.10 L 790.60 627.80 L 788.80 637.30 L 786.50 646.60 L 783.70 655.90 L 780.40 664.90 L 776.70 673.60 L 772.60 682.10 L 768.10 690.30 L 763.10 698.40 L 757.80 706.10 L 752.10 713.50 L 746.00 720.60 L 739.50 727.40 L 732.80 733.80 L 725.70 739.90 L 718.30 745.60 L 710.60 751.00 L 702.60 756.00 L 694.40 760.50 L 685.90 764.70 L 677.20 768.40 L 668.20 771.60 L 659.00 774.40 L 649.70 776.70 L 640.20 778.60 L 630.50 779.90 L 620.60 780.70 L 610.50 781.00 L 600.40 780.70 L 590.50 779.90 L 580.80 778.60 L 571.30 776.70 L 562.00 774.40 L 552.80 771.60 L 543.80 768.40 L 535.10 764.70 L 526.60 760.50 L 518.40 756.00 L 510.40 751.00 L 502.70 745.60 L 495.30 739.90 L 488.20 733.80 L 481.50 727.40 L 475.00 720.60 L 468.90 713.50 L 463.20 706.10 L 457.90 698.40 L 452.90 690.30 L 448.40 682.10 L 444.30 673.60 L 440.60 664.90 L 437.30 655.90 L 434.50 646.60 L 432.20 637.30 L 430.40 627.80 L 429.10 618.10 L 428.30 608.10 L 428.00 598.00 L 428.30 587.80 L 429.10 577.90 L 430.40 568.20 L 432.20 558.60 L 434.50 549.30 L 437.30 540.10 L 440.60 531.10 L 444.30 522.30 L 448.40 513.90 L 452.90 505.60 L 457.90 497.60 L 463.20 489.90 L 468.90 482.50 L 475.00 475.40 L 481.50 468.60 L 488.20 462.10 L 495.30 456.00 L 502.70 450.30 L 510.40 444.90 L 518.40 440.00 L 526.60 435.40 L 535.10 431.30 L 543.80 427.60 L 552.80 424.30 L 562.00 421.50 L 571.30 419.20 L 580.80 417.40 L 590.50 416.10 L 600.40 415.30 L 610.50 415.00 L 620.60 415.30 L 630.50 416.10 L 640.20 417.40 L 649.70 419.20 L 659.00 421.50 L 668.20 424.30 L 677.20 427.60 L 685.90 431.30 L 694.40 435.40 L 702.60 440.00 L 710.60 444.90 L 718.30 450.30 L 725.70 456.00 L 732.80 462.10 L 739.50 468.60 L 746.00 475.40 L 752.10 482.50 L 757.80 489.90 L 763.10 497.60 L 768.10 505.60 L 772.60 513.90 L 776.70 522.30 L 780.40 531.10 L 783.70 540.10 L 786.50 549.30 L 788.80 558.60 L 790.60 568.20 L 791.90 577.90 L 792.70 587.80 L 793.00 598.00 Z"
      fill="#2968ff" fill-opacity="0.06" fill-rule="nonzero" group-id="9" id="椭圆_120" node-id="36" stroke="none"
      target-height="366" target-width="365" target-x="428" target-y="415" />
  </g>
  <g node-id="132">
    <g node-id="147">
      <path
        d="M 830.20 925.50 L 835.60 925.30 L 840.80 924.60 L 846.00 923.50 L 851.00 921.90 L 855.80 919.90 L 860.50 917.50 L 864.90 914.60 L 869.10 911.40 L 873.10 907.80 L 876.70 903.90 L 879.90 899.70 L 882.70 895.30 L 885.10 890.60 L 887.20 885.80 L 888.70 880.70 L 889.90 875.60 L 890.60 870.40 L 890.80 865.00 L 890.60 859.70 L 889.90 854.50 L 888.70 849.30 L 887.20 844.30 L 885.10 839.50 L 882.70 834.80 L 879.90 830.40 L 876.70 826.20 L 873.10 822.30 L 869.10 818.60 L 864.90 815.40 L 860.50 812.60 L 855.80 810.20 L 851.00 808.20 L 846.00 806.60 L 840.80 805.50 L 835.60 804.80 L 830.20 804.60 L 824.90 804.80 L 819.70 805.50 L 814.50 806.60 L 809.50 808.20 L 804.70 810.20 L 800.00 812.60 L 795.60 815.40 L 791.40 818.60 L 787.40 822.30 L 783.80 826.20 L 780.60 830.40 L 777.80 834.80 L 775.30 839.50 L 773.30 844.30 L 771.70 849.30 L 770.60 854.50 L 769.90 859.70 L 769.70 865.00 L 769.90 870.40 L 770.60 875.60 L 771.70 880.70 L 773.30 885.80 L 775.30 890.60 L 777.80 895.30 L 780.60 899.70 L 783.80 903.90 L 787.40 907.80 L 791.40 911.40 L 795.60 914.60 L 800.00 917.50 L 804.70 919.90 L 809.50 921.90 L 814.50 923.50 L 819.70 924.60 L 824.90 925.30 L 830.20 925.50 Z"
        fill="#2968ff" fill-rule="nonzero" group-id="10,25" id="路径_1964" node-id="38" stroke="none"
        target-height="120.900024" target-width="121.099976" target-x="769.7" target-y="804.6" />
    </g>
    <g node-id="148">
      <path
        d="M 855.20 862.90 L 856.60 861.60 L 857.10 859.90 L 856.60 858.10 L 855.20 856.90 L 832.60 844.20 L 829.60 843.50 L 826.60 844.20 L 804.00 856.90 L 803.20 857.40 L 802.30 858.90 L 802.30 860.80 L 803.20 862.30 L 810.30 866.40 L 810.30 883.40 L 810.80 885.60 L 811.80 887.20 L 813.50 888.60 L 817.70 890.70 L 820.60 891.50 L 824.90 892.30 L 829.60 892.50 L 834.30 892.20 L 838.80 891.50 L 843.90 889.70 L 845.90 888.50 L 847.50 887.00 L 848.50 885.40 L 848.90 883.60 L 848.90 866.40 Z M 828.80 848.10 L 830.40 848.10 L 851.50 859.90 L 830.40 871.70 L 828.80 871.70 L 807.70 859.90 L 828.80 848.10 Z M 844.40 883.30 L 844.10 884.20 L 842.60 885.40 L 840.60 886.30 L 837.50 887.20 L 834.00 887.80 L 829.60 888.10 L 825.20 887.80 L 821.70 887.20 L 816.60 885.40 L 815.10 884.20 L 814.80 883.40 L 814.80 868.90 L 826.60 875.60 L 829.60 876.30 L 832.60 875.60 L 844.50 868.90 L 844.50 883.30 Z"
        fill="#ffffff" fill-rule="nonzero" group-id="10,26" id="路径_1967" node-id="39" stroke="none" target-height="49"
        target-width="54.799988" target-x="802.3" target-y="843.5" />
    </g>
    <g node-id="149">
      <path
        d="M 942.70 512.60 L 947.80 512.30 L 952.80 511.60 L 957.50 510.40 L 962.00 508.70 L 966.40 506.60 L 970.50 504.10 L 974.30 501.30 L 977.80 498.10 L 981.10 494.50 L 983.90 490.70 L 986.40 486.60 L 988.50 482.20 L 990.20 477.70 L 991.40 473.00 L 992.10 468.00 L 992.40 462.90 L 992.10 457.70 L 991.40 452.80 L 990.20 448.10 L 988.50 443.50 L 986.40 439.10 L 983.90 435.10 L 981.10 431.30 L 977.80 427.70 L 974.30 424.50 L 970.50 421.60 L 966.40 419.20 L 962.00 417.10 L 957.50 415.40 L 952.80 414.20 L 947.80 413.40 L 942.70 413.10 L 937.50 413.40 L 932.60 414.20 L 927.80 415.40 L 923.30 417.10 L 918.90 419.20 L 914.80 421.60 L 911.00 424.50 L 907.50 427.70 L 904.30 431.30 L 901.40 435.10 L 899.00 439.10 L 896.80 443.50 L 895.20 448.10 L 893.90 452.80 L 893.20 457.70 L 892.90 462.90 L 893.20 468.00 L 893.90 473.00 L 895.20 477.70 L 896.80 482.20 L 899.00 486.60 L 901.40 490.70 L 904.30 494.50 L 907.50 498.10 L 911.00 501.30 L 914.80 504.10 L 918.90 506.60 L 923.30 508.70 L 927.80 510.40 L 932.60 511.60 L 937.50 512.30 L 942.70 512.60 Z"
        fill="#7b68e7" fill-rule="nonzero" group-id="10,27" id="路径_1949" node-id="40" stroke="none"
        target-height="99.49997" target-width="99.5" target-x="892.9" target-y="413.1" />
    </g>
    <g node-id="150">
      <path
        d="M 965.30 471.20 L 963.30 470.50 L 961.30 470.40 L 959.30 470.90 L 957.50 472.00 L 954.30 470.20 L 954.30 461.10 L 953.70 459.40 L 944.80 454.10 L 944.80 450.00 L 947.20 448.60 L 948.80 446.40 L 949.40 443.70 L 949.10 441.80 L 948.50 440.30 L 947.40 438.90 L 946.10 437.80 L 944.50 437.20 L 942.70 436.90 L 940.80 437.20 L 939.30 437.80 L 937.90 438.90 L 936.90 440.30 L 936.20 441.80 L 935.90 443.70 L 936.10 445.10 L 937.20 447.60 L 939.20 449.40 L 940.50 450.00 L 940.50 454.10 L 931.60 459.40 L 931.00 461.10 L 931.00 470.20 L 927.80 472.00 L 926.10 470.90 L 924.10 470.40 L 922.00 470.50 L 920.10 471.20 L 918.60 472.40 L 917.60 473.70 L 916.90 475.30 L 916.70 477.00 L 916.90 478.70 L 917.60 480.40 L 918.70 481.80 L 920.00 482.90 L 921.70 483.60 L 923.40 483.80 L 925.10 483.60 L 926.80 482.90 L 928.40 481.60 L 929.50 479.80 L 930.10 477.90 L 930.00 475.80 L 932.90 474.10 L 941.30 478.90 L 942.70 479.30 L 944.00 478.90 L 952.40 474.10 L 955.40 475.80 L 955.30 477.90 L 955.80 479.80 L 956.90 481.60 L 958.60 482.90 L 960.30 483.60 L 961.90 483.80 L 963.60 483.60 L 965.20 482.90 L 966.60 481.90 L 967.70 480.50 L 968.40 478.70 L 968.60 477.00 L 968.40 475.30 L 967.70 473.70 L 966.70 472.40 L 965.30 471.20 Z M 924.80 479.60 L 923.80 479.90 L 922.70 479.80 L 921.70 479.40 L 920.90 478.50 L 920.60 477.40 L 920.60 476.30 L 921.10 475.30 L 922.00 474.60 L 923.00 474.20 L 924.10 474.30 L 925.10 474.80 L 925.90 475.60 L 926.30 476.70 L 925.70 478.80 L 924.80 479.60 Z M 939.80 443.70 L 940.00 442.50 L 940.60 441.60 L 941.50 441.00 L 942.70 440.80 L 943.80 441.00 L 944.70 441.60 L 945.30 442.50 L 945.50 443.70 L 945.30 444.80 L 944.70 445.70 L 943.80 446.30 L 942.70 446.50 L 941.50 446.30 L 940.60 445.70 L 940.00 444.80 L 939.80 443.70 Z M 950.00 470.50 L 942.70 474.70 L 935.30 470.50 L 935.30 462.00 L 942.70 457.80 L 950.00 462.00 L 950.00 470.50 Z M 964.40 478.50 L 963.70 479.30 L 962.70 479.80 L 961.60 479.90 L 960.50 479.60 L 959.60 478.80 L 959.10 477.80 L 959.10 476.70 L 959.40 475.60 L 960.20 474.80 L 961.20 474.30 L 962.30 474.20 L 963.40 474.60 L 964.20 475.30 L 964.70 476.30 L 964.80 477.40 L 964.40 478.50 Z"
        fill="#ffffff" fill-rule="nonzero" group-id="10,28" id="路径_1952" node-id="41" stroke="none"
        target-height="46.899994" target-width="51.899963" target-x="916.7" target-y="436.9" />
    </g>
    <g node-id="151">
      <path
        d="M 547.20 381.00 L 553.10 380.80 L 558.90 380.00 L 564.70 378.70 L 570.20 377.00 L 575.60 374.80 L 580.80 372.10 L 585.70 368.90 L 590.40 365.40 L 594.80 361.40 L 598.80 357.00 L 602.40 352.30 L 605.50 347.40 L 608.20 342.20 L 610.40 336.80 L 612.20 331.30 L 613.50 325.60 L 614.20 319.80 L 614.50 313.80 L 614.20 307.90 L 613.50 302.10 L 612.20 296.40 L 610.40 290.80 L 608.20 285.40 L 605.50 280.20 L 602.40 275.30 L 598.80 270.70 L 594.80 266.30 L 590.40 262.30 L 585.70 258.70 L 580.80 255.60 L 575.60 252.90 L 570.20 250.70 L 564.70 248.90 L 558.90 247.70 L 553.10 246.90 L 547.20 246.60 L 541.30 246.90 L 535.40 247.70 L 529.70 248.90 L 524.20 250.70 L 518.80 252.90 L 513.60 255.60 L 508.70 258.70 L 504.00 262.30 L 499.60 266.30 L 495.60 270.70 L 492.00 275.30 L 488.90 280.20 L 486.20 285.40 L 484.00 290.80 L 482.20 296.40 L 480.90 302.10 L 480.20 307.90 L 479.90 313.80 L 480.20 319.80 L 480.90 325.60 L 482.20 331.30 L 484.00 336.80 L 486.20 342.20 L 488.90 347.40 L 492.00 352.30 L 495.60 357.00 L 499.60 361.40 L 504.00 365.40 L 508.70 368.90 L 513.60 372.10 L 518.80 374.80 L 524.20 377.00 L 529.70 378.70 L 535.40 380.00 L 541.30 380.80 L 547.20 381.00 Z"
        fill="#ffb906" fill-rule="nonzero" group-id="10,29" id="路径_1955" node-id="42" stroke="none"
        target-height="134.4" target-width="134.6" target-x="479.9" target-y="246.6" />
    </g>
    <g node-id="152">
      <path
        d="M 576.20 285.60 L 522.90 285.60 L 521.50 286.10 L 521.00 287.50 L 521.10 323.10 L 522.10 324.10 L 522.90 324.30 L 531.90 324.10 L 543.40 310.10 L 548.30 314.20 L 549.00 314.60 L 550.40 314.50 L 561.10 303.10 L 561.30 302.40 L 561.00 300.90 L 560.40 300.40 L 558.90 300.20 L 558.20 300.50 L 549.40 310.10 L 544.30 305.90 L 543.70 305.50 L 542.20 305.70 L 530.10 320.40 L 524.80 320.40 L 524.80 289.40 L 574.20 289.40 L 574.20 320.40 L 546.80 320.60 L 545.80 321.60 L 545.60 322.30 L 545.60 331.80 L 534.30 331.80 L 533.50 332.00 L 532.50 333.00 L 532.50 334.50 L 533.50 335.50 L 534.20 335.70 L 560.30 335.70 L 561.60 335.10 L 562.20 333.80 L 562.00 333.00 L 561.00 332.00 L 549.50 331.80 L 549.50 324.30 L 576.20 324.30 L 577.50 323.70 L 578.10 322.40 L 578.10 287.50 L 577.60 286.10 L 576.20 285.60 Z"
        fill="#ffffff" fill-rule="nonzero" group-id="10,30" id="路径_1958" node-id="43" stroke="none"
        target-height="50.100006" target-width="57.099976" target-x="521" target-y="285.6" />
    </g>
    <g node-id="153">
      <path
        d="M 852.50 863.70 L 850.90 864.30 L 850.30 865.90 L 850.30 883.50 L 850.90 885.10 L 852.50 885.70 L 854.00 885.10 L 854.70 883.50 L 854.70 865.90 L 854.00 864.30 L 852.50 863.70 Z"
        fill="#ffffff" fill-rule="nonzero" group-id="10,31" id="路径_2360" node-id="44" stroke="none" target-height="22"
        target-width="4.4000244" target-x="850.3" target-y="863.7" />
    </g>
    <g node-id="154">
      <path
        d="M 251.00 677.50 L 256.40 677.20 L 261.60 676.50 L 266.60 675.20 L 271.40 673.40 L 276.00 671.20 L 280.20 668.60 L 284.20 665.60 L 288.00 662.30 L 291.40 658.50 L 294.30 654.60 L 296.90 650.30 L 299.20 645.70 L 300.90 640.90 L 302.20 635.90 L 303.00 630.80 L 303.30 625.40 L 303.00 619.90 L 302.20 614.80 L 300.90 609.80 L 299.20 605.00 L 296.90 600.40 L 294.30 596.10 L 291.40 592.20 L 288.00 588.40 L 284.20 585.10 L 280.20 582.10 L 276.00 579.50 L 271.40 577.30 L 266.60 575.50 L 261.60 574.20 L 256.40 573.50 L 251.00 573.20 L 245.60 573.50 L 240.40 574.20 L 235.50 575.50 L 230.70 577.30 L 226.10 579.50 L 221.80 582.10 L 217.80 585.10 L 214.10 588.40 L 210.70 592.20 L 207.70 596.10 L 205.10 600.40 L 202.90 605.00 L 201.10 609.80 L 199.80 614.80 L 199.00 619.90 L 198.80 625.40 L 199.00 630.80 L 199.80 635.90 L 201.10 640.90 L 202.90 645.70 L 205.10 650.30 L 207.70 654.60 L 210.70 658.50 L 214.10 662.30 L 217.80 665.60 L 221.80 668.60 L 226.10 671.20 L 230.70 673.40 L 235.50 675.20 L 240.40 676.50 L 245.60 677.20 L 251.00 677.50 Z"
        fill="#2968ff" fill-rule="nonzero" group-id="10,32" id="路径_1973" node-id="45" stroke="none"
        target-height="104.29999" target-width="104.499985" target-x="198.8" target-y="573.2" />
    </g>
    <g node-id="155">
      <path
        d="M 266.20 650.00 L 264.70 649.90 L 262.00 648.70 L 249.90 636.80 L 246.90 637.60 L 244.00 637.90 L 240.80 637.60 L 238.00 636.80 L 235.40 635.60 L 233.00 633.90 L 231.00 631.80 L 229.30 629.50 L 228.00 626.80 L 227.20 624.00 L 226.90 620.90 L 227.60 616.00 L 228.50 613.70 L 229.10 613.00 L 229.90 612.70 L 230.80 612.70 L 231.60 613.20 L 238.80 620.30 L 240.00 621.10 L 241.40 621.40 L 242.90 621.10 L 244.10 620.30 L 245.00 619.10 L 245.30 617.60 L 245.00 616.20 L 244.10 614.90 L 237.30 608.10 L 236.70 606.70 L 237.30 605.40 L 240.90 604.10 L 244.00 603.80 L 247.10 604.10 L 249.90 604.90 L 252.50 606.20 L 254.90 607.90 L 257.00 609.90 L 258.60 612.30 L 259.90 614.90 L 260.70 617.80 L 261.00 620.90 L 260.30 625.70 L 271.60 637.00 L 273.20 639.50 L 273.80 642.40 L 273.70 643.90 L 272.50 646.60 L 270.40 648.70 L 267.70 649.90 L 266.20 650.00 Z M 250.30 632.70 L 251.60 633.20 L 263.50 645.10 L 264.80 645.90 L 266.20 646.20 L 267.60 645.90 L 268.90 645.10 L 269.70 643.80 L 270.00 642.40 L 269.70 641.00 L 268.90 639.70 L 256.70 627.50 L 256.20 626.60 L 257.20 620.90 L 256.90 618.50 L 256.30 616.20 L 255.40 614.20 L 254.00 612.30 L 250.60 609.50 L 248.60 608.50 L 246.40 607.90 L 242.30 607.80 L 246.80 612.30 L 248.10 613.90 L 248.80 615.70 L 249.10 617.60 L 248.80 619.60 L 248.10 621.40 L 246.80 623.00 L 245.20 624.20 L 243.40 624.90 L 241.40 625.20 L 239.50 624.90 L 237.70 624.20 L 236.10 623.00 L 231.10 618.00 L 230.70 620.90 L 231.00 623.30 L 231.60 625.50 L 232.60 627.50 L 235.40 631.00 L 237.30 632.30 L 239.30 633.20 L 241.50 633.80 L 244.00 634.10 L 246.80 633.80 L 250.30 632.70 Z M 270.50 626.70 L 269.20 626.10 L 268.60 624.80 L 268.60 610.50 L 261.90 610.50 L 261.20 610.40 L 260.20 609.40 L 260.20 607.90 L 261.20 606.90 L 272.30 606.80 L 272.40 624.80 L 271.80 626.10 L 270.50 626.70 Z M 248.60 648.60 L 225.70 648.60 L 223.90 647.60 L 222.90 645.70 L 222.90 632.40 L 223.40 631.10 L 224.80 630.50 L 226.10 631.10 L 226.70 632.40 L 226.70 644.80 L 248.60 644.80 L 249.90 645.30 L 250.50 646.70 L 249.90 648.00 L 248.60 648.60 Z"
        fill="#ffffff" fill-rule="nonzero" group-id="10,33" id="路径_1976" node-id="46" stroke="none"
        target-height="46.200012" target-width="50.899994" target-x="222.9" target-y="603.8" />
    </g>
    <g node-id="156">
      <g node-id="201">
        <path
          d="M 933.20 728.40 L 937.60 730.50 L 942.10 731.50 L 946.50 732.10 L 955.50 732.10 L 960.00 731.50 L 964.40 730.50 L 966.70 729.60 L 969.80 727.80 L 970.90 725.90 L 971.10 724.70 L 970.90 723.60 L 969.80 721.70 L 966.70 719.80 L 964.40 719.00 L 960.00 718.00 L 955.50 717.40 L 951.00 717.30 L 946.50 717.40 L 942.10 718.00 L 937.60 719.00 L 935.30 719.80 L 932.30 721.70 L 931.10 723.60 L 931.00 724.70 L 931.60 726.90 L 933.20 728.40 Z M 935.10 723.60 L 938.60 722.00 L 942.70 721.10 L 951.00 720.50 L 955.20 720.60 L 959.40 721.10 L 963.50 722.10 L 965.30 722.70 L 967.70 724.40 L 967.70 725.10 L 967.00 725.80 L 963.50 727.40 L 959.40 728.30 L 951.00 729.00 L 946.80 728.80 L 938.60 727.40 L 936.80 726.80 L 934.30 725.10 L 934.30 724.40 L 935.10 723.60 Z M 969.30 748.60 L 968.10 749.10 L 967.50 750.60 L 966.80 751.30 L 963.30 752.90 L 959.20 753.80 L 955.00 754.30 L 950.80 754.40 L 946.60 754.30 L 938.40 752.90 L 934.90 751.30 L 934.20 750.60 L 933.60 749.10 L 933.00 748.70 L 931.80 748.70 L 930.90 749.60 L 931.00 751.30 L 931.40 752.30 L 933.00 753.90 L 935.20 755.10 L 937.50 755.90 L 941.90 756.90 L 946.30 757.50 L 950.80 757.70 L 955.40 757.50 L 959.80 756.90 L 964.20 756.00 L 966.50 755.10 L 969.60 753.20 L 970.70 751.30 L 970.80 749.60 L 969.90 748.70 L 969.30 748.60 Z"
          fill="#ffb906" fill-rule="nonzero" group-id="10,34,79" id="路径_1940" node-id="48" stroke="none"
          target-height="40.400024" target-width="40.19995" target-x="930.9" target-y="717.3" />
      </g>
      <path
        d="M 969.30 740.40 L 968.10 740.90 L 967.50 742.40 L 966.80 743.10 L 965.10 744.00 L 958.70 745.80 L 958.00 746.70 L 957.90 747.30 L 958.10 747.90 L 958.90 748.70 L 959.80 748.80 L 964.20 747.80 L 968.70 745.70 L 969.60 745.00 L 970.70 743.10 L 970.70 741.40 L 969.90 740.50 L 969.30 740.40 Z M 933.00 745.70 L 937.50 747.80 L 942.00 748.80 L 943.40 748.40 L 943.90 747.40 L 943.80 746.70 L 943.10 745.80 L 936.60 744.00 L 934.10 742.40 L 933.50 740.90 L 932.40 740.40 L 931.80 740.50 L 930.90 741.40 L 931.00 743.10 L 932.10 745.00 L 933.00 745.70 Z M 969.30 732.30 L 968.10 732.80 L 967.50 734.30 L 966.80 735.00 L 963.30 736.60 L 958.70 737.70 L 958.00 738.60 L 958.10 739.80 L 958.90 740.60 L 959.50 740.70 L 964.20 739.70 L 966.50 738.80 L 969.60 736.90 L 970.70 735.00 L 970.70 733.30 L 969.90 732.40 L 969.30 732.30 Z M 933.00 737.60 L 935.20 738.80 L 937.50 739.70 L 942.00 740.70 L 943.40 740.30 L 943.90 739.30 L 943.80 738.60 L 943.10 737.70 L 936.60 735.90 L 934.10 734.30 L 933.50 732.80 L 932.40 732.30 L 931.80 732.40 L 930.90 733.30 L 931.00 735.00 L 932.10 736.90 L 933.00 737.60 Z M 955.70 742.10 L 956.40 742.00 L 957.20 741.20 L 957.20 739.90 L 956.40 739.00 L 954.00 738.90 L 956.50 736.20 L 956.50 735.30 L 956.10 734.60 L 955.30 734.20 L 954.40 734.20 L 951.10 737.30 L 947.70 734.20 L 946.90 734.20 L 946.10 734.60 L 945.70 735.30 L 945.70 736.20 L 946.20 736.90 L 948.20 738.90 L 945.60 739.10 L 945.00 739.70 L 944.80 740.50 L 945.00 741.30 L 945.60 741.90 L 946.40 742.10 L 949.40 742.10 L 949.40 744.00 L 945.80 744.20 L 944.90 745.00 L 944.90 746.30 L 945.80 747.10 L 949.40 747.20 L 949.40 751.20 L 949.90 752.30 L 951.10 752.80 L 951.70 752.70 L 952.50 751.80 L 952.70 747.20 L 956.40 747.10 L 957.20 746.30 L 957.20 745.00 L 956.40 744.20 L 952.70 744.00 L 952.70 742.10 L 955.70 742.10 Z"
        fill="#ffb906" fill-rule="nonzero" group-id="10,34,80" id="路径_1943" node-id="49" stroke="none"
        target-height="20.5" target-width="39.799988" target-x="930.9" target-y="732.3" />
    </g>
    <g node-id="157">
      <path
        d="M 525.10 917.20 L 524.20 916.70 L 523.50 915.60 L 523.40 914.30 L 527.30 900.60 L 548.80 888.40 L 549.90 888.10 L 551.10 888.40 L 551.90 889.30 L 552.20 890.40 L 551.90 891.60 L 551.10 892.40 L 531.10 903.50 L 529.20 910.80 L 535.80 907.90 L 537.20 907.70 L 538.50 908.40 L 546.10 916.50 L 563.20 880.90 L 520.40 889.30 L 525.60 895.00 L 525.50 896.80 L 525.00 897.50 L 523.30 898.20 L 521.60 897.40 L 514.10 889.30 L 513.50 888.40 L 513.50 887.20 L 514.10 886.10 L 566.50 875.50 L 568.10 875.80 L 568.70 876.30 L 569.20 877.60 L 569.00 878.80 L 548.50 921.70 L 547.80 922.60 L 546.80 923.00 L 545.70 922.80 L 544.80 922.20 L 535.90 912.80 L 526.50 917.10 L 525.10 917.20 Z"
        fill="#ffb906" fill-rule="nonzero" group-id="10,35" id="路径_1946" node-id="50" stroke="none" target-height="47.5"
        target-width="55.700012" target-x="513.5" target-y="875.5" />
    </g>
    <path
      d="M 727.80 326.70 L 732.50 320.90 L 746.00 320.70 L 746.70 320.50 L 747.70 319.50 L 747.80 297.10 L 747.30 295.80 L 746.00 295.30 L 709.70 295.30 L 708.40 295.80 L 707.80 297.10 L 708.00 319.50 L 708.40 320.10 L 709.70 320.70 L 722.40 320.70 L 723.80 321.40 Z M 709.70 324.30 L 706.90 323.60 L 704.90 321.60 L 704.40 320.30 L 704.20 297.10 L 704.40 295.70 L 705.80 293.20 L 706.90 292.40 L 709.70 291.60 L 746.00 291.60 L 747.40 291.80 L 749.80 293.20 L 751.20 295.70 L 751.40 318.80 L 750.70 321.60 L 749.80 322.70 L 748.70 323.60 L 746.00 324.30 L 734.20 324.30 L 729.30 330.80 L 727.80 331.50 L 726.40 330.80 L 721.50 324.30 Z"
      fill="#ffb906" fill-rule="nonzero" group-id="10,36" id="路径_1934" node-id="51" stroke="none"
      target-height="39.899994" target-width="47.200012" target-x="704.2" target-y="291.6" />
  </g>
  <g node-id="133">
    <g node-id="159">
      <path
        d="M 609.60 752.70 L 618.00 752.40 L 626.30 751.80 L 634.30 750.70 L 642.20 749.20 L 649.90 747.30 L 657.50 744.90 L 665.00 742.20 L 672.20 739.20 L 679.20 735.80 L 686.00 732.00 L 694.30 726.80 L 702.20 721.10 L 709.60 715.00 L 716.70 708.30 L 723.30 701.30 L 729.50 693.80 L 735.10 686.00 L 740.30 677.70 L 744.10 670.90 L 747.50 663.80 L 750.60 656.60 L 753.30 649.20 L 755.60 641.50 L 757.50 633.80 L 759.00 625.90 L 760.10 617.90 L 760.80 609.70 L 761.00 601.30 L 760.80 592.90 L 760.10 584.70 L 759.00 576.60 L 757.50 568.80 L 755.60 561.00 L 753.30 553.40 L 750.60 546.00 L 747.50 538.70 L 744.10 531.70 L 740.30 524.90 L 735.10 516.60 L 729.50 508.80 L 723.30 501.30 L 716.70 494.30 L 709.60 487.60 L 702.20 481.50 L 694.30 475.80 L 686.00 470.60 L 679.20 466.80 L 672.20 463.40 L 665.00 460.40 L 657.50 457.70 L 649.90 455.30 L 642.20 453.40 L 634.30 451.90 L 626.30 450.80 L 618.00 450.20 L 609.60 449.90 L 601.20 450.20 L 593.00 450.80 L 585.00 451.90 L 577.10 453.40 L 569.40 455.30 L 561.70 457.70 L 554.30 460.40 L 547.10 463.40 L 540.10 466.80 L 533.20 470.60 L 525.00 475.80 L 517.10 481.50 L 509.70 487.60 L 502.60 494.30 L 496.00 501.30 L 489.80 508.80 L 484.10 516.60 L 478.90 524.90 L 475.20 531.70 L 471.70 538.70 L 468.70 546.00 L 466.00 553.40 L 463.70 561.10 L 461.80 568.80 L 460.30 576.60 L 459.20 584.70 L 458.50 592.90 L 458.30 601.30 L 458.50 609.70 L 459.20 617.90 L 460.30 625.90 L 461.80 633.80 L 463.70 641.50 L 466.00 649.20 L 468.70 656.60 L 471.70 663.80 L 475.20 670.90 L 478.90 677.70 L 484.10 686.00 L 489.80 693.80 L 496.00 701.30 L 502.60 708.30 L 509.70 715.00 L 517.10 721.10 L 525.00 726.80 L 533.20 732.00 L 540.10 735.80 L 547.10 739.20 L 554.30 742.20 L 561.70 744.90 L 569.40 747.30 L 577.10 749.20 L 585.00 750.70 L 593.00 751.80 L 601.20 752.40 L 609.60 752.70 Z"
        fill="url(#linear-gradient)" fill-rule="evenodd" filter="url(#路径_1979)" group-id="11,37" id="路径_1979-2"
        node-id="53" stroke="none" target-height="302.80002" target-width="302.7" target-x="458.3" target-y="449.9" />
    </g>
  </g>
  <g node-id="134">
    <path
      d="M 593.20 650.30 L 611.10 654.80 L 628.50 658.60 L 645.20 661.70 L 662.10 664.20 L 678.10 666.00 L 693.20 667.20 L 704.70 667.70 L 715.50 667.80 L 735.20 667.00 L 744.90 666.10 L 753.80 664.80 L 761.80 663.20 L 769.10 661.40 L 776.40 659.00 L 782.80 656.30 L 788.30 653.50 L 792.90 650.40 L 796.40 647.40 L 799.30 644.40 L 801.60 641.10 L 803.40 637.80 L 804.60 634.20 L 805.30 630.50 L 805.50 626.70 L 805.10 622.70 L 804.10 618.60 L 802.60 614.30 L 800.10 609.30 L 796.80 604.10 L 792.60 598.60 L 787.40 592.90 L 782.00 587.60 L 775.90 582.30 L 768.90 576.70 L 760.90 571.00 L 744.30 560.60 L 734.90 555.30 L 724.60 549.90 L 711.00 543.40 L 696.20 537.00 L 680.30 530.70 L 664.20 525.00 L 647.40 519.60 L 629.60 514.50 L 611.70 510.00 L 594.30 506.30 L 577.60 503.20 L 560.70 500.70 L 544.70 498.80 L 529.60 497.70 L 518.10 497.20 L 507.30 497.00 L 487.60 497.80 L 477.90 498.80 L 469.00 500.00 L 461.00 501.60 L 453.70 503.50 L 446.40 505.90 L 440.00 508.50 L 434.60 511.40 L 429.90 514.50 L 426.40 517.40 L 423.50 520.50 L 421.20 523.70 L 419.40 527.10 L 418.20 530.70 L 417.50 534.40 L 417.30 538.20 L 417.70 542.10 L 418.70 546.20 L 420.20 550.50 L 422.70 555.50 L 426.00 560.70 L 430.20 566.20 L 435.40 572.00 L 440.80 577.20 L 446.90 582.60 L 453.90 588.10 L 461.90 593.80 L 478.50 604.30 L 488.00 609.60 L 498.20 614.90 L 511.90 621.50 L 526.60 627.90 L 542.50 634.10 L 558.60 639.80 L 575.50 645.20 L 593.20 650.30 Z"
      fill="none" group-id="12" id="line-2" node-id="54" stroke="#ffffff" stroke-linecap="butt" stroke-width="2.4999998"
      target-height="170.79999" target-width="388.2" target-x="417.3" target-y="497" />
  </g>
  <g node-id="135">
    <path
      d="M 761.00 601.30 L 760.80 592.90 L 760.10 584.70 L 759.00 576.60 L 757.50 568.80 L 755.60 561.00 L 753.30 553.40 L 750.60 546.00 L 747.50 538.70 L 744.10 531.70 L 740.30 524.90 L 735.10 516.60 L 729.50 508.80 L 723.30 501.30 L 716.70 494.20 L 709.60 487.60 L 702.10 481.50 L 694.30 475.80 L 686.00 470.60 L 679.20 466.80 L 672.20 463.40 L 665.00 460.30 L 657.50 457.70 L 649.90 455.30 L 642.20 453.40 L 634.30 451.90 L 626.20 450.80 L 618.00 450.10 L 609.60 449.90 L 600.90 450.20 L 592.20 450.90 L 583.70 452.10 L 575.30 453.80 L 567.00 456.00 L 558.80 458.70 L 550.90 461.70 L 543.10 465.30 L 535.50 469.20 L 528.20 473.60 L 521.20 478.40 L 514.30 483.60 L 507.80 489.20 L 501.60 495.20 L 495.70 501.60 L 490.10 508.40 L 489.40 509.60 L 489.20 511.10 L 489.30 512.70 L 490.00 514.70 L 491.30 517.20 L 493.90 520.70 L 497.80 524.90 L 503.30 529.90 L 515.90 539.80 L 524.00 545.40 L 536.80 553.70 L 551.50 562.40 L 566.90 571.00 L 583.50 579.60 L 600.60 587.90 L 629.90 600.80 L 653.00 609.70 L 664.70 613.70 L 686.30 620.00 L 697.10 622.60 L 706.90 624.40 L 715.90 625.60 L 722.80 626.20 L 729.00 626.20 L 734.60 625.90 L 739.60 625.20 L 743.60 624.20 L 747.20 623.00 L 750.30 621.40 L 753.00 619.60 L 755.30 617.50 L 757.30 615.10 L 758.80 612.30 L 760.00 609.20 L 760.70 605.50 L 761.00 601.30 Z"
      fill="#2867ff" fill-rule="evenodd" group-id="13" id="路径_1984" node-id="55" stroke="none" target-height="176.30002"
      target-width="271.8" target-x="489.2" target-y="449.9" />
  </g>
  <g node-id="136">
    <g node-id="160">
      <path
        d="M 475.80 449.90 L 457.30 449.70 L 456.70 449.30 L 456.10 447.70 L 456.70 446.20 L 457.30 445.80 L 476.50 445.80 L 477.60 446.90 L 477.60 448.60 L 476.50 449.70 L 475.80 449.90 Z"
        fill="#8b93a0" fill-opacity="0.651" fill-rule="nonzero" group-id="14,38" id="路径_1987" node-id="57" stroke="none"
        target-height="4.100006" target-width="21.5" target-x="456.1" target-y="445.8" />
    </g>
    <g node-id="161">
      <path
        d="M 485.30 406.70 L 486.10 406.30 L 486.40 405.60 L 485.70 404.60 L 484.90 404.60 L 484.20 405.60 L 484.50 406.30 L 485.30 406.70 Z"
        fill="#8b93a0" fill-opacity="0.651" fill-rule="nonzero" group-id="14,39" id="路径_1990" node-id="58" stroke="none"
        target-height="2.100006" target-width="2.1999817" target-x="484.2" target-y="404.6" />
    </g>
    <g node-id="162">
      <path
        d="M 385.80 499.60 L 387.10 499.40 L 388.10 498.70 L 388.80 497.60 L 389.10 496.40 L 388.80 495.20 L 388.10 494.10 L 387.10 493.40 L 385.80 493.20 L 384.60 493.40 L 383.50 494.10 L 382.80 495.20 L 382.60 496.40 L 382.80 497.60 L 383.50 498.70 L 384.60 499.40 L 385.80 499.60 Z"
        fill="#8b93a0" fill-opacity="0.651" fill-rule="nonzero" group-id="14,40" id="路径_1993" node-id="59" stroke="none"
        target-height="6.399994" target-width="6.5" target-x="382.6" target-y="493.2" />
    </g>
    <g node-id="163">
      <path
        d="M 379.30 618.60 L 380.80 618.40 L 383.10 617.00 L 384.50 614.60 L 384.70 613.20 L 384.50 611.70 L 383.10 609.40 L 380.80 608.00 L 379.30 607.80 L 377.90 608.00 L 375.50 609.40 L 374.10 611.70 L 373.90 613.20 L 374.10 614.60 L 375.50 617.00 L 377.90 618.40 L 379.30 618.60 Z"
        fill="#8b93a0" fill-opacity="0.651" fill-rule="nonzero" group-id="14,41" id="路径_1996" node-id="60" stroke="none"
        target-height="10.799988" target-width="10.800018" target-x="373.9" target-y="607.8" />
    </g>
    <g node-id="164">
      <path
        d="M 490.70 462.90 L 491.90 462.70 L 493.80 461.60 L 494.90 459.70 L 495.00 458.60 L 494.90 457.40 L 493.80 455.50 L 491.90 454.40 L 490.70 454.20 L 489.60 454.40 L 487.60 455.50 L 486.90 456.40 L 486.40 458.60 L 486.50 459.70 L 487.60 461.60 L 488.50 462.30 L 490.70 462.90 Z"
        fill="#8b93a0" fill-opacity="0.651" fill-rule="nonzero" group-id="14,42" id="路径_1999" node-id="61" stroke="none"
        target-height="8.699982" target-width="8.600006" target-x="486.4" target-y="454.2" />
    </g>
    <g node-id="165">
      <path
        d="M 392.30 698.60 L 393.60 698.30 L 394.60 697.60 L 395.30 696.60 L 395.50 695.40 L 395.30 694.10 L 394.60 693.10 L 393.60 692.40 L 392.30 692.10 L 391.00 692.40 L 390.00 693.10 L 389.30 694.10 L 389.10 695.40 L 389.30 696.60 L 390.00 697.60 L 391.00 698.30 L 392.30 698.60 Z"
        fill="#8b93a0" fill-opacity="0.651" fill-rule="nonzero" group-id="14,43" id="路径_2002" node-id="62" stroke="none"
        target-height="6.5" target-width="6.399994" target-x="389.1" target-y="692.1" />
    </g>
    <g node-id="166">
      <path
        d="M 461.50 746.20 L 462.80 745.90 L 463.80 745.20 L 464.50 744.20 L 464.70 742.90 L 464.50 741.70 L 463.80 740.60 L 462.70 739.90 L 461.50 739.70 L 460.20 739.90 L 459.20 740.60 L 458.50 741.70 L 458.30 742.90 L 458.50 744.20 L 459.20 745.20 L 460.20 745.90 L 461.50 746.20 Z"
        fill="#8b93a0" fill-opacity="0.651" fill-rule="nonzero" group-id="14,44" id="路径_2005" node-id="63" stroke="none"
        target-height="6.5" target-width="6.4000244" target-x="458.3" target-y="739.7" />
    </g>
    <g node-id="167">
      <path
        d="M 568.50 373.20 L 560.90 373.20 L 560.90 365.60 L 556.80 365.60 L 556.80 373.20 L 549.10 373.20 L 549.10 377.40 L 556.80 377.40 L 556.80 385.00 L 560.90 385.00 L 560.90 377.40 L 568.50 377.40 Z"
        fill="#8b93a0" fill-opacity="0.651" fill-rule="nonzero" group-id="14,45" id="路径_2008" node-id="64" stroke="none"
        target-height="19.399994" target-width="19.400024" target-x="549.1" target-y="365.6" />
    </g>
    <g node-id="168">
      <path
        d="M 872.40 599.10 L 873.80 598.90 L 876.20 597.50 L 877.60 595.20 L 877.80 593.70 L 877.60 592.30 L 876.20 589.90 L 873.80 588.50 L 872.40 588.30 L 870.90 588.50 L 868.60 589.90 L 867.20 592.20 L 867.00 593.70 L 867.20 595.20 L 868.60 597.50 L 870.90 598.90 L 872.40 599.10 Z"
        fill="#8b93a0" fill-opacity="0.651" fill-rule="nonzero" group-id="14,46" id="路径_2011" node-id="65" stroke="none"
        target-height="10.799988" target-width="10.799988" target-x="867" target-y="588.3" />
    </g>
    <g node-id="169">
      <path
        d="M 734.00 434.80 L 735.30 434.50 L 736.30 433.80 L 737.00 432.80 L 737.20 431.50 L 737.00 430.30 L 736.30 429.20 L 735.30 428.50 L 734.00 428.30 L 732.70 428.50 L 731.70 429.20 L 731.00 430.30 L 730.70 431.50 L 731.00 432.80 L 731.70 433.80 L 732.70 434.50 L 734.00 434.80 Z"
        fill="#8b93a0" fill-opacity="0.651" fill-rule="nonzero" group-id="14,47" id="路径_2014" node-id="66" stroke="none"
        target-height="6.5" target-width="6.5" target-x="730.7" target-y="428.3" />
    </g>
    <g node-id="170">
      <path
        d="M 823.70 497.50 L 824.60 497.30 L 825.70 496.10 L 825.70 494.50 L 824.60 493.30 L 822.90 493.30 L 822.20 493.80 L 821.60 495.30 L 822.20 496.90 L 823.70 497.50 Z"
        fill="#8b93a0" fill-opacity="0.651" fill-rule="nonzero" group-id="14,48" id="路径_2017" node-id="67" stroke="none"
        target-height="4.200012" target-width="4.1000366" target-x="821.6" target-y="493.3" />
    </g>
    <g node-id="171">
      <path
        d="M 812.90 584.00 L 814.40 583.40 L 815.10 581.80 L 814.40 580.30 L 812.90 579.70 L 811.40 580.30 L 810.70 581.80 L 811.40 583.40 L 812.90 584.00 Z"
        fill="#8b93a0" fill-opacity="0.651" fill-rule="nonzero" group-id="14,49" id="路径_2020" node-id="68" stroke="none"
        target-height="4.299988" target-width="4.3999634" target-x="810.7" target-y="579.7" />
    </g>
    <g node-id="172">
      <path
        d="M 739.40 765.60 L 735.10 765.60 L 735.10 761.30 L 732.80 761.30 L 732.80 765.60 L 728.60 765.60 L 728.60 767.90 L 732.80 767.90 L 732.80 772.10 L 735.10 772.10 L 735.10 767.90 L 739.40 767.90 Z"
        fill="#8b93a0" fill-opacity="0.651" fill-rule="nonzero" group-id="14,50" id="路径_2023" node-id="69" stroke="none"
        target-height="10.799988" target-width="10.800049" target-x="728.6" target-y="761.3" />
    </g>
    <path
      d="M 843.20 740.90 L 839.80 740.90 L 839.80 737.50 L 837.90 737.50 L 837.90 740.90 L 834.50 740.90 L 834.50 742.80 L 837.90 742.80 L 837.90 746.20 L 839.80 746.20 L 839.80 742.80 L 843.20 742.80 Z"
      fill="#8b93a0" fill-opacity="0.651" fill-rule="nonzero" group-id="14,51" id="路径_2026" node-id="70" stroke="none"
      target-height="8.700012" target-width="8.700012" target-x="834.5" target-y="737.5" />
  </g>
  <g node-id="137">
    <g node-id="174">
      <path
        d="M 616.10 493.20 L 619.60 492.90 L 622.70 492.30 L 625.40 491.20 L 627.30 489.90 L 628.90 487.80 L 628.90 485.50 L 627.30 483.40 L 625.40 482.10 L 622.70 481.10 L 619.60 480.40 L 616.10 480.20 L 612.60 480.40 L 609.60 481.10 L 606.90 482.10 L 604.90 483.40 L 603.30 485.50 L 603.10 486.70 L 603.90 488.90 L 604.90 489.90 L 606.90 491.20 L 609.60 492.30 L 612.60 492.90 L 616.10 493.20 Z"
        fill="#000000" fill-opacity="0.11" fill-rule="nonzero" group-id="15,52" id="路径_2039" node-id="72" stroke="none"
        target-height="13" target-width="25.800049" target-x="603.1" target-y="480.2" />
    </g>
    <g node-id="175">
      <path
        d="M 617.20 445.60 L 620.40 445.30 L 623.40 444.30 L 626.20 442.90 L 628.70 440.80 L 630.70 438.40 L 632.20 435.60 L 633.10 432.50 L 633.40 429.40 L 633.10 426.20 L 632.20 423.20 L 630.70 420.40 L 628.70 417.90 L 626.20 415.90 L 623.40 414.40 L 620.40 413.50 L 617.20 413.10 L 614.20 413.40 L 611.50 414.20 L 609.00 415.40 L 606.70 417.00 L 604.80 418.90 L 603.20 421.20 L 602.00 423.70 L 601.30 426.40 L 601.00 429.40 L 601.30 432.30 L 602.00 435.00 L 603.20 437.60 L 604.80 439.80 L 606.70 441.80 L 609.00 443.40 L 611.50 444.60 L 614.20 445.30 L 617.20 445.60 Z"
        fill="#2968ff" fill-rule="nonzero" group-id="15,53" id="路径_2063" node-id="73" stroke="none" target-height="32.5"
        target-width="32.400024" target-x="601" target-y="413.1" />
    </g>
    <path
      d="M 616.10 404.50 L 613.00 404.70 L 610.00 405.30 L 607.00 406.30 L 604.20 407.70 L 601.70 409.40 L 599.30 411.50 L 597.20 413.80 L 595.50 416.40 L 594.10 419.20 L 593.10 422.10 L 592.50 425.10 L 592.30 428.30 L 593.10 433.40 L 594.10 437.00 L 598.50 448.70 L 604.20 461.30 L 616.10 484.50 L 628.00 461.30 L 633.70 448.70 L 638.10 437.00 L 639.20 433.40 L 639.90 428.30 L 639.70 425.10 L 639.10 422.10 L 638.10 419.20 L 636.70 416.40 L 635.00 413.80 L 632.90 411.50 L 630.60 409.40 L 628.00 407.70 L 625.20 406.30 L 622.30 405.30 L 619.30 404.70 L 616.10 404.50 Z M 616.10 439.90 L 614.00 439.60 L 611.90 439.00 L 610.00 438.00 L 608.30 436.60 L 607.00 435.00 L 605.90 433.10 L 605.30 431.00 L 605.10 428.90 L 605.30 426.70 L 605.90 424.60 L 606.90 422.70 L 608.30 421.10 L 610.00 419.70 L 611.90 418.70 L 614.00 418.00 L 616.10 417.80 L 618.20 418.00 L 620.30 418.70 L 622.30 419.70 L 623.90 421.00 L 625.30 422.70 L 626.30 424.60 L 626.90 426.70 L 627.10 428.80 L 626.90 431.00 L 626.30 433.10 L 625.30 435.00 L 623.90 436.60 L 622.20 438.00 L 620.30 439.00 L 618.30 439.70 L 616.10 439.90 Z"
      fill="#ffffff" fill-rule="nonzero" group-id="15,54" id="路径_2066" node-id="74" stroke="none" target-height="80"
      target-width="47.600037" target-x="592.3" target-y="404.5" />
  </g>
  <g node-id="138">
    <g node-id="177">
      <path
        d="M 726.40 620.40 L 729.90 620.20 L 733.00 619.40 L 735.70 618.20 L 737.60 616.70 L 738.60 615.50 L 739.40 612.90 L 738.60 610.30 L 737.60 609.10 L 735.70 607.60 L 733.00 606.30 L 729.90 605.60 L 726.40 605.30 L 722.90 605.60 L 719.90 606.30 L 717.20 607.60 L 715.20 609.10 L 714.20 610.30 L 713.40 612.90 L 714.20 615.50 L 715.20 616.70 L 717.20 618.20 L 719.90 619.40 L 722.90 620.20 L 726.40 620.40 Z"
        fill="#000000" fill-opacity="0.11" fill-rule="nonzero" group-id="16,55" id="路径_2039-2" node-id="76"
        stroke="none" target-height="15.100037" target-width="26" target-x="713.4" target-y="605.3" />
    </g>
    <g node-id="178">
      <path
        d="M 727.50 573.20 L 730.70 572.90 L 733.70 571.90 L 736.50 570.50 L 739.00 568.40 L 741.00 565.90 L 742.50 563.20 L 743.40 560.10 L 743.70 557.00 L 743.40 553.80 L 742.50 550.70 L 741.00 548.00 L 739.00 545.50 L 736.50 543.50 L 733.70 542.00 L 730.70 541.10 L 727.50 540.70 L 724.50 541.00 L 721.80 541.80 L 719.30 542.90 L 717.00 544.60 L 715.10 546.50 L 713.50 548.80 L 712.30 551.30 L 711.50 554.00 L 711.30 557.00 L 711.50 559.90 L 712.30 562.60 L 713.50 565.10 L 715.10 567.40 L 717.00 569.30 L 719.30 571.00 L 721.80 572.20 L 724.50 572.90 L 727.50 573.20 Z"
        fill="#2968ff" fill-rule="nonzero" group-id="16,56" id="路径_2063-2" node-id="77" stroke="none"
        target-height="32.5" target-width="32.400024" target-x="711.3" target-y="540.7" />
    </g>
    <path
      d="M 726.40 532.10 L 723.30 532.30 L 720.20 532.90 L 717.30 533.90 L 714.50 535.30 L 712.00 537.00 L 709.60 539.00 L 707.50 541.40 L 704.40 546.80 L 703.40 549.70 L 702.80 552.70 L 702.60 555.90 L 703.40 560.90 L 704.40 564.60 L 708.80 576.30 L 714.50 588.90 L 726.40 612.10 L 738.30 588.90 L 744.00 576.30 L 748.40 564.60 L 749.50 560.90 L 750.20 555.90 L 750.00 552.70 L 749.40 549.70 L 748.40 546.80 L 747.00 544.00 L 745.30 541.40 L 743.20 539.00 L 740.90 537.00 L 738.30 535.30 L 735.50 533.90 L 732.60 532.90 L 729.60 532.30 L 726.40 532.10 Z M 726.40 567.50 L 724.20 567.20 L 722.20 566.60 L 720.30 565.60 L 718.60 564.20 L 717.30 562.60 L 716.20 560.70 L 715.60 558.60 L 715.40 556.50 L 715.60 554.30 L 716.20 552.20 L 717.20 550.30 L 718.60 548.60 L 720.30 547.30 L 722.20 546.30 L 724.30 545.60 L 726.40 545.40 L 728.50 545.60 L 730.60 546.30 L 732.50 547.30 L 734.20 548.60 L 735.60 550.30 L 736.60 552.20 L 737.20 554.30 L 737.40 556.40 L 737.20 558.60 L 736.60 560.70 L 735.60 562.60 L 734.20 564.20 L 732.50 565.60 L 730.60 566.60 L 728.60 567.20 L 726.40 567.50 Z"
      fill="#ffffff" fill-rule="nonzero" group-id="16,57" id="路径_2066-2" node-id="78" stroke="none" target-height="80"
      target-width="47.600037" target-x="702.6" target-y="532.1" />
  </g>
  <g node-id="139">
    <g node-id="180">
      <path
        d="M 516.60 581.80 L 520.20 581.50 L 523.20 580.80 L 525.90 579.60 L 527.80 578.10 L 528.80 576.90 L 529.60 574.30 L 528.80 571.70 L 527.80 570.40 L 525.90 568.90 L 523.20 567.70 L 520.20 567.00 L 516.60 566.70 L 513.10 567.00 L 510.10 567.70 L 507.40 568.90 L 505.40 570.40 L 504.50 571.70 L 503.70 574.30 L 504.50 576.90 L 505.40 578.10 L 507.40 579.60 L 510.10 580.80 L 513.10 581.50 L 516.60 581.80 Z"
        fill="#000000" fill-opacity="0.11" fill-rule="nonzero" group-id="17,58" id="路径_2039-3" node-id="80"
        stroke="none" target-height="15.099976" target-width="25.899963" target-x="503.7" target-y="566.7" />
    </g>
    <g node-id="181">
      <path
        d="M 517.70 536.40 L 520.90 536.10 L 523.90 535.20 L 526.70 533.70 L 529.20 531.70 L 531.20 529.20 L 532.70 526.40 L 533.60 523.40 L 533.90 520.20 L 533.60 517.00 L 532.70 514.00 L 531.20 511.20 L 529.20 508.70 L 526.70 506.70 L 523.90 505.20 L 520.90 504.30 L 517.70 504.00 L 514.80 504.20 L 512.10 505.00 L 509.50 506.20 L 507.30 507.80 L 505.30 509.70 L 503.70 512.00 L 502.50 514.50 L 501.80 517.20 L 501.50 520.20 L 501.80 523.20 L 502.50 525.90 L 503.70 528.40 L 505.30 530.70 L 507.30 532.60 L 509.50 534.20 L 512.10 535.40 L 514.80 536.10 L 517.70 536.40 Z"
        fill="#2968ff" fill-rule="nonzero" group-id="17,59" id="路径_2063-3" node-id="81" stroke="none"
        target-height="32.400024" target-width="32.400024" target-x="501.5" target-y="504" />
    </g>
    <path
      d="M 516.60 495.30 L 513.50 495.50 L 510.50 496.10 L 507.50 497.10 L 504.80 498.50 L 502.20 500.20 L 499.80 502.30 L 497.70 504.70 L 496.00 507.20 L 494.70 510.00 L 493.70 512.90 L 493.10 515.90 L 492.90 519.10 L 493.60 524.20 L 494.60 527.80 L 499.00 539.50 L 504.80 552.10 L 516.60 575.30 L 528.50 552.10 L 534.30 539.50 L 538.70 527.80 L 539.70 524.20 L 540.40 519.10 L 540.20 515.90 L 539.60 512.90 L 538.60 510.00 L 537.30 507.20 L 535.50 504.70 L 533.50 502.30 L 531.10 500.20 L 528.50 498.50 L 525.70 497.10 L 522.80 496.10 L 519.80 495.50 L 516.60 495.30 Z M 516.60 530.70 L 514.50 530.50 L 512.40 529.90 L 510.50 528.80 L 508.80 527.40 L 507.50 525.80 L 506.50 523.90 L 505.80 521.80 L 505.60 519.70 L 505.80 517.50 L 506.50 515.40 L 507.50 513.60 L 508.80 511.90 L 510.50 510.50 L 512.40 509.50 L 514.50 508.90 L 516.70 508.70 L 518.80 508.90 L 520.90 509.50 L 522.80 510.50 L 524.40 511.90 L 525.80 513.60 L 526.80 515.50 L 527.50 517.50 L 527.70 519.70 L 527.50 521.80 L 526.80 523.90 L 525.80 525.80 L 524.40 527.50 L 522.80 528.80 L 520.90 529.90 L 518.80 530.50 L 516.60 530.70 Z"
      fill="#ffffff" fill-rule="nonzero" group-id="17,60" id="路径_2066-3" node-id="82" stroke="none" target-height="80"
      target-width="47.50003" target-x="492.9" target-y="495.3" />
  </g>
  <g node-id="140">
    <g node-id="183">
      <path
        d="M 533.90 679.10 L 537.50 678.90 L 540.50 678.10 L 543.20 676.90 L 545.10 675.40 L 546.10 674.20 L 546.90 671.60 L 546.10 669.00 L 545.10 667.70 L 543.20 666.30 L 540.50 665.00 L 537.50 664.30 L 533.90 664.00 L 530.40 664.30 L 527.40 665.00 L 524.70 666.30 L 522.70 667.70 L 521.80 669.00 L 521.00 671.60 L 521.80 674.20 L 522.70 675.40 L 524.70 676.90 L 527.40 678.10 L 530.40 678.90 L 533.90 679.10 Z"
        fill="#000000" fill-opacity="0.11" fill-rule="nonzero" group-id="18,61" id="路径_2039-4" node-id="84"
        stroke="none" target-height="15.099976" target-width="25.900024" target-x="521" target-y="664" />
    </g>
    <g node-id="184">
      <path
        d="M 535.00 633.70 L 538.20 633.40 L 541.20 632.50 L 544.00 631.00 L 546.50 629.00 L 548.50 626.50 L 550.00 623.70 L 550.90 620.70 L 551.20 617.50 L 550.90 614.30 L 550.00 611.30 L 548.50 608.50 L 546.50 606.00 L 544.00 604.00 L 541.20 602.50 L 538.20 601.60 L 535.00 601.30 L 532.10 601.60 L 529.40 602.30 L 526.80 603.50 L 524.60 605.10 L 522.60 607.00 L 521.00 609.30 L 519.80 611.80 L 519.10 614.50 L 518.80 617.50 L 519.10 620.50 L 519.80 623.20 L 521.00 625.70 L 522.60 628.00 L 524.60 629.90 L 526.80 631.50 L 529.40 632.70 L 532.10 633.40 L 535.00 633.70 Z"
        fill="#ffffff" fill-rule="nonzero" group-id="18,62" id="路径_2063-4" node-id="85" stroke="none"
        target-height="32.400024" target-width="32.400024" target-x="518.8" target-y="601.3" />
    </g>
    <path
      d="M 533.90 592.60 L 530.80 592.80 L 527.80 593.40 L 524.80 594.40 L 522.10 595.80 L 519.50 597.50 L 517.10 599.60 L 515.00 602.00 L 513.30 604.50 L 512.00 607.30 L 511.00 610.20 L 510.40 613.30 L 510.20 616.40 L 510.90 621.50 L 511.90 625.10 L 516.30 636.80 L 522.10 649.50 L 533.90 672.70 L 545.80 649.50 L 551.60 636.80 L 556.00 625.10 L 557.00 621.50 L 557.70 616.40 L 557.50 613.30 L 556.90 610.20 L 555.90 607.30 L 552.80 602.00 L 550.80 599.60 L 548.40 597.50 L 545.80 595.80 L 543.00 594.40 L 540.10 593.40 L 537.10 592.80 L 533.90 592.60 Z M 533.90 628.00 L 531.80 627.80 L 529.70 627.20 L 527.80 626.10 L 526.10 624.80 L 524.80 623.10 L 523.80 621.20 L 523.10 619.10 L 522.90 617.00 L 523.10 614.80 L 523.80 612.80 L 524.80 610.90 L 526.20 609.20 L 527.80 607.80 L 529.70 606.80 L 531.80 606.20 L 534.00 606.00 L 536.10 606.20 L 538.20 606.80 L 540.10 607.80 L 541.70 609.20 L 543.10 610.90 L 544.10 612.80 L 544.80 614.80 L 545.00 617.00 L 544.80 619.10 L 544.10 621.20 L 543.10 623.10 L 541.70 624.80 L 540.10 626.10 L 538.20 627.20 L 536.10 627.80 L 533.90 628.00 Z"
      fill="#3e3d55" fill-rule="nonzero" group-id="18,63" id="路径_2066-4" node-id="86" stroke="none"
      target-height="80.10004" target-width="47.5" target-x="510.2" target-y="592.6" />
  </g>
  <g node-id="141">
    <g node-id="186">
      <path
        d="M 620.40 609.90 L 624.00 609.70 L 627.00 608.90 L 629.70 607.70 L 631.60 606.20 L 633.20 603.70 L 633.20 601.00 L 631.60 598.50 L 629.70 597.10 L 627.00 595.80 L 624.00 595.10 L 620.40 594.80 L 616.90 595.10 L 613.90 595.80 L 611.20 597.10 L 609.20 598.50 L 607.70 601.00 L 607.50 602.40 L 608.30 605.00 L 609.20 606.20 L 611.20 607.70 L 613.90 608.90 L 616.90 609.70 L 620.40 609.90 Z"
        fill="#000000" fill-opacity="0.11" fill-rule="nonzero" group-id="19,64" id="路径_2039-5" node-id="88"
        stroke="none" target-height="15.100037" target-width="25.700012" target-x="607.5" target-y="594.8" />
    </g>
    <g node-id="187">
      <path
        d="M 621.50 564.50 L 624.70 564.20 L 627.70 563.30 L 630.50 561.80 L 633.00 559.80 L 635.00 557.30 L 636.50 554.50 L 637.40 551.50 L 637.70 548.30 L 637.40 545.10 L 636.50 542.10 L 635.00 539.30 L 633.00 536.80 L 630.50 534.80 L 627.70 533.30 L 624.70 532.40 L 621.50 532.10 L 618.60 532.40 L 615.90 533.10 L 613.30 534.30 L 611.10 535.90 L 609.10 537.80 L 607.50 540.10 L 606.30 542.60 L 605.60 545.30 L 605.30 548.30 L 605.60 551.30 L 606.30 554.00 L 607.50 556.50 L 609.10 558.80 L 611.10 560.70 L 613.30 562.30 L 615.90 563.50 L 618.60 564.20 L 621.50 564.50 Z"
        fill="#ffffff" fill-rule="nonzero" group-id="19,65" id="路径_2063-5" node-id="89" stroke="none"
        target-height="32.400024" target-width="32.400024" target-x="605.3" target-y="532.1" />
    </g>
    <path
      d="M 620.40 523.40 L 617.30 523.60 L 614.30 524.20 L 611.30 525.20 L 608.60 526.60 L 606.00 528.30 L 603.60 530.40 L 601.60 532.80 L 598.50 538.10 L 597.50 541.00 L 596.90 544.10 L 596.70 547.20 L 597.40 552.30 L 598.40 555.90 L 602.80 567.60 L 608.60 580.30 L 620.40 603.40 L 632.30 580.30 L 638.10 567.60 L 642.50 555.90 L 643.50 552.30 L 644.20 547.20 L 644.00 544.10 L 643.40 541.00 L 642.40 538.10 L 641.10 535.30 L 639.30 532.80 L 637.30 530.40 L 634.90 528.30 L 632.30 526.60 L 629.50 525.20 L 623.60 523.60 L 620.40 523.40 Z M 620.40 558.80 L 618.30 558.60 L 616.20 558.00 L 614.30 556.90 L 612.60 555.60 L 611.30 553.90 L 610.30 552.00 L 609.60 549.90 L 609.40 547.80 L 609.60 545.60 L 610.30 543.60 L 611.30 541.70 L 612.70 540.00 L 614.30 538.60 L 616.20 537.60 L 618.30 537.00 L 620.50 536.80 L 622.60 537.00 L 624.70 537.60 L 626.60 538.60 L 628.20 540.00 L 629.60 541.70 L 630.60 543.60 L 631.30 545.60 L 631.50 547.80 L 631.30 549.90 L 630.60 552.00 L 629.60 553.90 L 628.20 555.60 L 626.60 556.90 L 624.70 558.00 L 622.60 558.60 L 620.40 558.80 Z"
      fill="#3e3d55" fill-rule="nonzero" group-id="19,66" id="路径_2066-5" node-id="90" stroke="none" target-height="80"
      target-width="47.5" target-x="596.7" target-y="523.4" />
  </g>
  <g node-id="142">
    <g node-id="189">
      <path
        d="M 687.50 527.80 L 691.00 527.50 L 694.00 526.70 L 696.70 525.50 L 698.70 524.00 L 699.70 522.80 L 700.50 520.20 L 699.70 517.60 L 698.70 516.40 L 696.70 514.90 L 694.00 513.70 L 691.00 512.90 L 687.50 512.60 L 684.00 512.90 L 680.90 513.70 L 678.20 514.90 L 676.30 516.40 L 675.30 517.60 L 674.50 520.20 L 675.30 522.80 L 676.30 524.00 L 678.20 525.50 L 680.90 526.70 L 684.00 527.50 L 687.50 527.80 Z"
        fill="#000000" fill-opacity="0.11" fill-rule="nonzero" group-id="20,67" id="路径_2039-6" node-id="92"
        stroke="none" target-height="15.200012" target-width="26" target-x="674.5" target-y="512.6" />
    </g>
    <g node-id="190">
      <path
        d="M 688.60 482.30 L 691.80 482.00 L 694.80 481.10 L 697.60 479.60 L 700.00 477.60 L 702.10 475.10 L 703.50 472.30 L 704.50 469.30 L 704.80 466.10 L 704.50 462.90 L 703.50 459.90 L 702.10 457.10 L 700.00 454.70 L 697.60 452.60 L 694.80 451.10 L 691.80 450.20 L 688.60 449.90 L 685.60 450.20 L 682.90 450.90 L 680.40 452.10 L 678.10 453.70 L 676.20 455.70 L 674.60 457.90 L 673.40 460.50 L 672.60 463.20 L 672.30 466.10 L 672.60 469.10 L 673.40 471.80 L 674.60 474.30 L 676.20 476.60 L 678.10 478.50 L 680.40 480.10 L 682.90 481.30 L 685.60 482.10 L 688.60 482.30 Z"
        fill="#ffffff" fill-rule="nonzero" group-id="20,68" id="路径_2063-6" node-id="93" stroke="none"
        target-height="32.399994" target-width="32.5" target-x="672.3" target-y="449.9" />
    </g>
    <path
      d="M 687.50 441.30 L 684.30 441.50 L 681.30 442.10 L 678.40 443.10 L 675.60 444.40 L 673.00 446.10 L 670.70 448.20 L 668.60 450.60 L 666.90 453.20 L 665.50 455.90 L 663.90 461.90 L 663.70 465.00 L 664.40 470.10 L 665.50 473.80 L 669.90 485.40 L 675.60 498.10 L 687.50 521.30 L 699.40 498.10 L 705.10 485.40 L 709.50 473.80 L 710.50 470.10 L 711.30 465.00 L 711.10 461.90 L 709.50 455.90 L 708.10 453.20 L 706.40 450.60 L 704.30 448.20 L 701.90 446.10 L 699.40 444.40 L 696.60 443.10 L 693.70 442.10 L 690.60 441.50 L 687.50 441.30 Z M 687.50 476.60 L 685.30 476.40 L 683.30 475.80 L 681.40 474.80 L 679.70 473.40 L 678.30 471.70 L 677.30 469.80 L 676.70 467.70 L 676.50 465.60 L 676.70 463.50 L 677.30 461.40 L 678.30 459.50 L 679.70 457.80 L 681.40 456.40 L 683.20 455.40 L 685.30 454.80 L 687.50 454.60 L 689.60 454.80 L 691.70 455.40 L 693.60 456.50 L 695.30 457.80 L 696.60 459.50 L 697.70 461.40 L 698.30 463.40 L 698.50 465.60 L 698.30 467.80 L 697.70 469.80 L 696.60 471.70 L 695.30 473.40 L 693.60 474.80 L 691.70 475.80 L 689.60 476.40 L 687.50 476.60 Z"
      fill="#3e3d55" fill-rule="nonzero" group-id="20,69" id="路径_2066-6" node-id="94" stroke="none" target-height="80"
      target-width="47.599976" target-x="663.7" target-y="441.3" />
  </g>
</svg>
